<?xml version="1.0" standalone="no"?>
<!DOCTYPE svg PUBLIC "-//W3C//DTD SVG 1.1//EN" "http://www.w3.org/Graphics/SVG/1.1/DTD/svg11.dtd" >
<svg xmlns="http://www.w3.org/2000/svg">
<metadata>Generated by IcoMoon</metadata>
<defs>
<font id="icomoon" horiz-adv-x="512">
<font-face units-per-em="512" ascent="480" descent="-32" />
<missing-glyph horiz-adv-x="512" />
<glyph unicode="&#x20;" d="" horiz-adv-x="256" />
<glyph unicode="&#xe600;" d="M415.75 288q-13.25 0-22.5 9.25t-9.25 22.75q0 17-18.75 32t-48.25 23.5-61 8.5-61-8.5-48.25-23.5-18.75-32 18.75-32 48.25-23.5 61-8.5q52 0 96.25-17.25t70-46.5 25.75-64.25q0-47-45.75-82.75t-114.25-43.25v-2q0-13.5-9.5-22.75t-22.75-9.25-22.5 9.25-9.25 22.75v2q-68.5 7.5-114.25 43.25t-45.75 82.75q0 13 9.25 22.5t22.5 9.5 22.75-9.5 9.5-22.5q0-17 18.75-32t48.25-23.5 61-8.5 61 8.5 48.25 23.5 18.75 32-18.75 32-48.25 23.5-61 8.5q-52 0-96.25 17t-70 46.5-25.75 64.5q0 47 45.75 82.75t114.25 43.25v2q0 13 9.25 22.5t22.5 9.5 22.75-9.5 9.5-22.5v-2q68.5-7.5 114.25-43.25t45.75-82.75q0-13.5-9.5-22.75t-22.75-9.25z" />
<glyph unicode="&#xe601;" d="M416-32q-40 0-68 28.25t-28 68 28 67.75 68 28 68-28 28-67.75-28-68-68-28.25zM416.25 96q-13.25 0-22.75-9.25t-9.5-22.5 9.5-22.75 22.75-9.5 22.5 9.5 9.25 22.75-9.25 22.5-22.5 9.25zM198 0q-7-13.5-21.75-22.75t-28.25-9.25h-64.5q-13.5 0-17.75 9.5t2.75 22.5l245.5 448q7 13.5 21.75 22.75t28.25 9.25h64.5q13.5 0 17.75-9.25t-2.75-22.75zM96 288q-40 0-68 28.25t-28 68 28 67.75 68 28 68-28 28-67.75-28-68-68-28.25zM95.75 416q-13.25 0-22.5-9.25t-9.25-22.5 9.25-22.75 22.75-9.5 22.75 9.5 9.25 22.75-9.5 22.5-22.75 9.25z" />
<glyph unicode="&#xe602;" d="M494 205.5l-124.5-18 92.5-95q7.5-10.5 5.5-23.5t-12-20.5l-98-74.5q-10-7.5-22.25-5.5t-19.75 12.5l-55.5 116.5-55.5-116.5q-7.5-10.5-19.75-12.5t-22.25 5.5l-98 74.5q-10 7.5-12 20.5t5.5 23.5l92.5 95-124.5 18q-12.5 4-18.5 15.5t-2 23.5l39.5 118q4 12.5 15.75 18.25t24.25 1.75l98.5-49.5-19.5 115q0 13 9.5 22.5t22.5 9.5h128q13 0 22.5-9.5t9.5-22.5l-19.5-115 98.5 49.5q12.5 4 24.25-1.75t15.75-18.25l39.5-118q4-12-2-23.5t-18.5-15.5z" />
<glyph unicode="&#xe603;" d="M480 160h-160v-160q0-13.5-9.25-22.75t-22.75-9.25h-64q-13.5 0-22.75 9.5t-9.25 22.5v160h-160q-13.5 0-22.75 9.5t-9.25 22.5v64q0 13.5 9.25 22.75t22.75 9.25h160v160q0 13.5 9.25 22.75t22.75 9.25h64q13.5 0 22.75-9.25t9.25-22.75v-160h160q13.5 0 22.75-9.25t9.25-22.75v-64q0-13-9.25-22.5t-22.75-9.5z" />
<glyph unicode="&#xe604;" d="M439.5 427.5l-151.5-151.5v-52h64q13.5 0 22.75-9.5t9.25-22.75-9.25-22.5-22.75-9.25h-64v-32h64q13.5 0 22.75-9.5t9.25-22.75-9.25-22.5-22.75-9.25h-64v-64q0-13.5-9.25-22.75t-22.5-9.25-22.5 9.25-9.25 22.75v64h-64q-13.5 0-22.75 9.25t-9.25 22.5 9.25 22.75 22.75 9.5h64v32h-64q-13.5 0-22.75 9.25t-9.25 22.5 9.25 22.75 22.75 9.5h64v52l-151.5 151.5q-9 9-9 21.75t9 21.75 21.75 9 21.75-9l139.5-139.5 140 139.5q9 9 21.75 9t21.75-9 9-21.75-9-21.75z" />
<glyph unicode="&#xe605;" d="M256-32q-69.5 0-128.5 34.25t-93.25 93.25-34.25 128.5 34.25 128.5 93.25 93.25 128.5 34.25 128.5-34.25 93.25-93.25 34.25-128.5-34.25-128.5-93.25-93.25-128.5-34.25zM256 416q-52 0-96.25-25.75t-70-70-25.75-96.25 25.75-96.25 70-70 96.25-25.75 96.25 25.75 70 70 25.75 96.25-25.75 96.25-70 70-96.25 25.75zM367 264q-3-10.5-11.5-17.25t-19.5-6.75q-4 0-8 1.5t-6.5 3-5.75 5-4.5 5-3.5 5.25-2.75 4.25q-19.5 24-49 24-26.5 0-45.25-18.75t-18.75-45.25 18.75-45.25 45.25-18.75q29.5 0 49 24 1 1 4.75 6.75t6.25 8.5 8 5.75 12 3q11 0 19.5-6.75t11.5-17.25q0.5-2 1-5.5t-1.75-11.75-9.25-14.75q-18.5-25-45-40.5t-56-15.5q-53 0-90.5 37.5t-37.5 90.5 37.5 90.5 90.5 37.5q30.5 0 57.25-15.75t45.25-41.75q6-5.5 8-13.25t1-12.75z" />
<glyph unicode="&#xe606;" d="M480 416h-32v-416q0-13-9.5-22.5t-22.75-9.5-22.5 9.5-9.25 22.5v416h-128v-416q0-13-9.5-22.5t-22.75-9.5-22.5 9.5-9.25 22.5v160h-32q-43.5 0-80.25 21.5t-58.25 58.25-21.5 80.25 21.5 80.25 58.25 58.25 80.25 21.5h320q13 0 22.5-9.25t9.5-22.5-9.25-22.75-22.75-9.5z" />
<glyph unicode="&#xe607;" d="M350.5 224l151.5-152q10-10 10-23.75t-10-23.25l-47-47q-9.5-10-23.5-10t-23.5 10l-152 151.5-152-151.5q-9.5-10-23.5-10t-23.5 10l-47 47q-10 9.5-10 23.25t10 23.75l151.5 152-151.5 151.5q-10 10-10 23.75t10 23.75l47 47q9.5 9.5 23.5 9.5t23.5-9.5l152-152 152 152q9.5 9.5 23.5 9.5t23.5-9.5l47-47q10-10 10-23.75t-10-23.75z" />
<glyph unicode="&#xe608;" d="M480 160h-448q-13.5 0-22.75 9.5t-9.25 22.5v64q0 13.5 9.5 22.75t22.5 9.25h448q13.5 0 22.75-9.25t9.25-22.75v-64q0-13-9.25-22.5t-22.75-9.5zM288 352h-64q-13.5 0-22.75 9.5t-9.25 22.5v64q0 13.5 9.5 22.75t22.5 9.25h64q13.5 0 22.75-9.25t9.25-22.75v-64q0-13-9.25-22.5t-22.75-9.5zM224 96h64q13.5 0 22.75-9.25t9.25-22.75v-64q0-13.5-9.5-22.75t-22.5-9.25h-64q-13.5 0-22.75 9.5t-9.25 22.5v64q0 13.5 9.5 22.75t22.5 9.25z" />
<glyph unicode="&#xe609;" d="M384-32q-25.5 0-50 10.5t-47.25 30.25-40.5 39.75-38.25 47.5q-8.5 11.5-21 24.75t-32.5 30.75-44 29-46.5 11.5h-48q-6.5 0-11.25 4.75t-4.75 11.25 4.75 11.25 11.25 4.75h48q18.5 0 27.75-0.25t26.25-1.25 27.25-3.5 25-7 25.5-11.25 22.5-17 21.75-23.75q12.5-17 39.75-40.5t40.25-23.5q32 0 32 32v64q0 13 9.25 22.5t22.75 9.5h96q13 0 22.5-9.5t9.5-22.5v-96q0-53-37.5-90.5t-90.5-37.5zM448 352q0-18 4.5-41.5 0.5-2.5 9-20.25t12.5-34.25h-29q-4.5 21-13 32-11.5 12-13.75 23.75t-2.25 40.25q0 40 18.75 68t45.25 28q-19-7.5-25.5-32t-6.5-64zM352 377.5q0-19 4.5-44.5 25-28 27-77h-31.5q0 32-4.5 38-27.5 31-27.5 83.5 0 42.5 18.75 72.5t45.25 30q7.5 0 16-3.5-21-9-34.5-36.25t-13.5-62.75z" />
<glyph unicode="&#xe60a;" d="M480 192q0-45.5-17.75-87t-47.75-71.5-71.5-47.75-87-17.75-87 17.75-71.5 47.75-47.75 71.5-17.75 87q0 81.5 51.75 143.25t130.25 76.75l-54 36 64 32h64l64-32-54-36q78.5-15 130.25-76.75t51.75-143.25zM256 352q-43.5 0-80.25-21.5t-58.25-58.25-21.5-80.25 21.5-80.25 58.25-58.25 80.25-21.5 80.25 21.5 58.25 58.25 21.5 80.25-21.5 80.25-58.25 58.25-80.25 21.5z" />
<glyph unicode="&#xe60b;" d="M507-1.5l-25.5-25.5q-5-5-12.25-5t-12.75 5l-164 164.5-38.5-39q-3-2.5-7-2.5t-6.5 2.5l-14 13.5q-2.5 3-2.5 7t2.5 7l14.5 14.5-113 99.5q-37.5 37.5-80.5 114.75t-47.5 125.25q5.5-6.5 13.5-14.5t18.75-18.25 15.75-15.25q36.5-36.5 77-61.75t49.5-16.25l0.25 0.25t0.25 0.75l140.5-140.5 6.5 7q3 2.5 7 2.5t7-2.5l13.5-14q3-2.5 3-6.5t-3-7l-6.5-6.5 164-164q5-5.5 5-12.75t-5-12.25z" />
<glyph unicode="&#xe60c;" d="M351 449.5l-62-71.5 60.5-285q3-8 4-11.25t0.25-7.25-4.25-7.5l-78-93.5q-5-5.5-12.75-5.5t-13.25 5.5l-77.5 93.5q-5 6.5-4.75 10.75t4.75 15.25l60.5 285.5-61.5 71q-6.5 6-3.25 18.25t14.25 12.25h162.5q11 0 13.75-12.25t-3.25-18.25z" />
<glyph unicode="&#xe60d;" d="M448.25 288q-13.25 0-22.75 9.25t-9.5 22.75q-10.5 41.5-47 68.75t-81 27.25q-44 0-78.5-27t-45.5-69h92q13.5 0 22.75-9.5t9.25-22.75-9.25-22.5-22.75-9.25h-96v-64h96q13.5 0 22.75-9.5t9.25-22.75-9.25-22.5-22.75-9.25h-92q11-42 45.5-69t78.5-27q44.5 0 81 27.25t47 68.75q0 13 9.5 22.5t22.75 9.5 22.5-9.5 9.25-22.5q0-11.5-7.5-20.5-17.5-61-68.5-100.25t-116-39.25q-71 0-124.25 45.75t-64.75 114.25h-35q-13.5 0-22.75 9.25t-9.25 22.5 9.25 22.75 22.75 9.5h32v64h-32q-13.5 0-22.75 9.25t-9.25 22.5 9.25 22.75 22.75 9.5h35q11.5 68.5 64.75 114.25t124.25 45.75q65 0 116-39.25t68.5-100.25q7.5-9 7.5-20.5 0-13.5-9.25-22.75t-22.5-9.25z" />
<glyph unicode="&#xe60e;" d="M502.25 202.25q-9.75-9.75-23.5-9.75t-23.25 9.5l-7.5 7.5v-209.5q0-13-9.25-22.5t-22.75-9.5h-96v144q0 6.5-4.75 11.25t-11.25 4.75h-96q-6.5 0-11.25-4.75t-4.75-11.25v-144h-96q-13.5 0-22.75 9.5t-9.25 22.5v209.5l-7.5-7.5q-9.5-9.5-23.25-9.5t-23.5 9.75-9.75 23.5 9.5 23.25l222 222q10 10 24.5 9.5 14.5 0.5 24.5-9.5l222-222q9.5-9.5 9.5-23.25t-9.75-23.5z" />
<glyph unicode="&#xe60f;" d="M466.5 223.5h-83v-95.5q0-13.5-9.25-22.75t-22.25-9.25h-192q-13 0-22.5 9.25t-9.5 22.75v95.5h-82q-6 0-10 6.5t-3.5 15.5 6.5 15l194.5 210q9 9.5 22.5 9.5t23-9.5l194-210q6-6 6.75-15t-3.25-15.5-10-6.5zM160 64.5h192q13 0 22.25-9.5t9.25-22.5v-32.5q0-13-9.25-22.5t-22.25-9.5h-192q-13 0-22.5 9.25t-9.5 22.75v32.5q0 13 9.5 22.5t22.5 9.5z" />
<glyph unicode="&#xe610;" d="M448-32h-384q-26.5 0-45.25 18.75t-18.75 45.25v384q0 26.5 18.75 45.25t45.25 18.75h384q26.5 0 45.25-18.75t18.75-45.25v-384q0-26.5-18.75-45.25t-45.25-18.75zM352 96h-32v32h32v32h-32v32h32v32h-32v32h32v32h-32v32h32v32h-32v32h32v32h-32v-32h-32v32h-32v-32h-32v32h-144q-6.5 0-11.25-4.75t-4.75-11.25v-352q0-6.5 4.75-11.25t11.25-4.75h112v32h32v-32h32v32h32v-32h32v32h32v32zM288 64v32h32v-32h-32zM288 160h32v-32h-32v32zM288 224h32v-32h-32v32zM288 288h32v-32h-32v32zM288 352h32v-32h-32v32zM256 352v32h32v-32h-32zM192 352v32h32v-32h-32zM256 96v-32h-32v32h32zM256 128h32v-32h-32v32zM256 192h32v-32h-32v32zM256 256h32v-32h-32v32zM256 320h32v-32h-32v32zM224 320v32h32v-32h-32zM256 256h-32v32h32v-32zM256 192h-32v32h32v-32zM256 128h-32v32h32v-32zM192 96v32h32v-32h-32zM192 160v32h32v-32h-32zM192 224v32h32v-32h-32zM192 288v32h32v-32h-32z" />
<glyph unicode="&#xe611;" d="M512 256v-64q0-13.5-9.5-22.75t-22.5-9.25h-448q-13 0-22.5 9.25t-9.5 22.75v64q0 13 9.25 22.5t22.75 9.5h448q13 0 22.5-9.5t9.5-22.5z" />
<glyph unicode="&#xe612;" d="M384 96q-48.5 0-128 76.5-79.5-76.5-128-76.5-53 0-90.5 37.5t-37.5 90.5 37.5 90.5 90.5 37.5q49 0 128-76.5 79.5 76.5 128 76.5 53 0 90.5-37.5t37.5-90.5-37.5-90.5-90.5-37.5zM128 288q-28.5 0-46.25-18.5t-17.75-45.5 17.75-45.5 46.25-18.5q11 0 23.25 6.5t22 16 17.75 19 12.5 16l4.5 6.5q-1.5 2.5-4.5 6.75t-12.25 15.5-18.25 19.5-21.5 15.25-23.5 7zM384 288q-11 0-23.25-6.5t-22-16-17.75-19-12.5-16l-4.5-6.5q1.5-2.5 4.5-7t12.25-15.5 18.25-19.25 21.5-15.25 23.5-7q28.5 0 46.25 18.5t17.75 45.5-17.75 45.5-46.25 18.5z" />
<glyph unicode="&#xe613;" d="M480 288h-192v-32h129q17-0.5 21.5-5l68.5-47q5-5 5-12t-5-12l-68.5-47q-5-5-22.5-5h-128v-128q0-13-9.25-22.5t-22.75-9.5-22.75 9.5-9.25 22.5v128h-192q-13 0-22.5 9.5t-9.5 22.5v64q0 13 9.5 22.5t22.5 9.5h192v32h-128q-17.5 0-22.5 5l-68.5 47q-5 5-5 12t5 12l68.5 47q4.5 5 21.5 5h129v32q0 13 9.25 22.5t22.75 9.5 22.75-9.5 9.25-22.5v-32h192q13 0 22.5-9.25t9.5-22.75v-64q0-13.5-9.5-22.75t-22.5-9.25z" />
<glyph unicode="&#xe614;" d="M0-32v512.5h512v-512.5h-512zM480 448.5h-448v-384.5h448v384.5zM128 416.5q26.5 0 45.25-18.75t18.75-45.25-18.75-45.25-45.25-18.75-45.25 18.5-18.75 45v0.5q0 26.5 18.75 45.25t45.25 18.75zM183.5 215.5l119-119.5h-238.5v46.5l73 73q9 9 23.25 9t23.25-9zM345 311.5q9 9.5 23.25 9.5t23.25-9.5l56.5-56.5v-159h-102q0 0.5-0.75 1.75t-1.25 2.25l-105.5 105z" />
<glyph unicode="&#xe615;" d="M495.25-15.25q-12.75-12.75-29.25-16t-35.25 4.75-36.25 27l-145 170q-32-15-68.25-8.75t-62.75 32.75l-110.5 111q-8 7.5-8 18.75t8 19.25 19.25 8 18.75-8l117-117q19 4.5 36.5 15l-127.5 127.5q-8 8-8 19.25t8 19.25 19 8 19-8l128-127.5q10.5 17 15 36l-117 117q-8 8-8 19.25t7.75 19 19 7.75 19.25-8l111.5-110q26-26.5 32.25-63t-8.75-68.5l170-144q19-17 27.25-36t5-35.5-16-29.25z" />
<glyph unicode="&#xe616;" d="M480 0h-169q-8.5-14.5-23-23.25t-32-8.75-32 8.75-23 23.25h-169q-13.5 0-22.75 9.5t-9.25 22.5v32q26.5 0 45.25 37.5t18.75 90.5v64q0 71 45.75 124.25t114.25 64.75v3q0 13.5 9.5 22.75t22.5 9.25 22.5-9.25 9.5-22.75v-3q68.5-11.5 114.25-64.75t45.75-124.25v-64q0-53 18.75-90.5t45.25-37.5v-32q0-13-9.25-22.5t-22.75-9.5z" />
<glyph unicode="&#xe617;" d="M464 0q-20 0-34 14t-14 34v160q0 21 22.5 50.5t41.5 29.5q9.5 0 16.25-8.5t9.75-22 4.5-25.75 1.5-23.75v-160q0-20-14-34t-34-14zM352 224h-192q-13.5 0-22.75 9.5t-9.25 22.5l-32 128q0 13.5 9.25 22.75t22.75 9.25h256q13 0 22.5-9.5t9.5-22.5l-32-128q0-13-9.5-22.5t-22.5-9.5zM96 48q0-20-14-34t-34-14-34 14-14 34v160q0 11.5 1.25 23.75t4.5 25.75 10 22 16.25 8.5q19 0 41.5-29.5t22.5-50.5v-160zM160 192h192q13 0 22.5-9.25t9.5-22.5-9.5-22.75-22.5-9.5h-192q-13.5 0-22.75 9.5t-9.25 22.75 9.25 22.5 22.75 9.25zM160 96h192q13 0 22.5-9.25t9.5-22.75v-32q0-13-9.5-22.5t-22.5-9.5h-192q-13.5 0-22.75 9.5t-9.25 22.5v32q0 13.5 9.25 22.75t22.75 9.25z" />
<glyph unicode="&#xe618;" d="M0-32v512h512v-512h-512zM480 448h-448v-448h448v448z" />
<glyph unicode="&#xe619;" d="M496-32h-16v16q0 6.5-4.75 11.25t-11.25 4.75-11.25-4.75-4.75-11.25v-16h-32v48q0 6.5-4.75 11.25t-11.25 4.75-11.25-4.75-4.75-11.25v-48h-32v16q0 6.5-4.75 11.25t-11.25 4.75-11.25-4.75-4.75-11.25v-16h-32v48q0 6.5-4.75 11.25t-11.25 4.75-11.25-4.75-4.75-11.25v-48h-32v16q0 6.5-4.75 11.25t-11.25 4.75-11.25-4.75-4.75-11.25v-16h-32v48q0 6.5-4.75 11.25t-11.25 4.75-11.25-4.75-4.75-11.25v-48h-32v16q0 6.5-4.75 11.25t-11.25 4.75-11.25-4.75-4.75-11.25v-16h-48q-6.5 0-11.25 4.75t-4.75 11.25l496 496q6.5 0 11.25-4.75t4.75-11.25v-480q0-6.5-4.75-11.25t-11.25-4.75zM416 240q0 6.5-4.75 11.25t-11.25 4.75l-176-176q0-6.5 4.75-11.25t11.25-4.75h160q6.5 0 11.25 4.75t4.75 11.25v160z" />
<glyph unicode="&#xe61a;" d="M256-32q-52 0-99.5 20.25t-81.75 54.5-54.5 81.75-20.25 99.75 20.25 99.5 54.5 81.5 81.75 54.75 99.5 20.5 99.5-20.5 81.75-54.75 54.5-81.5 20.25-99.5-20.25-99.75-54.5-81.75-81.75-54.5-99.5-20.25zM256 352q-13 0-22.5-9.25t-9.5-22.5 9.25-22.75 22.75-9.5 22.75 9.5 9.25 22.75-9.5 22.5-22.5 9.25zM256 224q-40 0-68 28.25t-28 68 28 67.75 68 28q-52 0-96.25-25.5t-70-69.75-25.75-96.5 25.75-96.5 70-70 96.25-25.75q40 0 68 28.25t28 68-28 67.75-68 28zM256.25 96q-13.25 0-22.75 9.5t-9.5 22.75 9.5 22.5 22.75 9.25 22.5-9.25 9.25-22.5-9.25-22.75-22.5-9.5z" />
<glyph unicode="&#xe61b;" d="M256-32q-52 0-99.5 20.25t-81.75 54.5-54.5 81.75-20.25 99.5 20.25 99.5 54.5 81.75 81.75 54.5 99.5 20.25 99.5-20.25 81.75-54.5 54.5-81.75 20.25-99.5-20.25-99.5-54.5-81.75-81.75-54.5-99.5-20.25zM144 352q-20 0-34-18.75t-14-45.25 14-45.25 34-18.75 34 18.75 14 45.25-14 45.25-34 18.75zM368 352q-20 0-34-18.75t-14-45.25 14-45.25 34-18.75 34 18.75 14 45.25-14 45.25-34 18.75zM400 160h-288q-6.5 0-11.25-4.75t-4.75-11.25q20-56.5 58.75-84.25t100.75-27.75 101.25 27.75 59.25 84.25q0 6.5-4.75 11.25t-11.25 4.75zM255.5 64q-83 0-111.5 57 0 3 2.75 5t6.75 2h205q4 0 6.75-2t2.75-5q-28.5-57-112.5-57z" />
<glyph unicode="&#xe61c;" d="M256-32q-52 0-99.5 20.25t-81.75 54.5-54.5 81.75-20.25 99.5 20.25 99.5 54.5 81.75 81.75 54.5 99.5 20.25 99.5-20.25 81.75-54.5 54.5-81.75 20.25-99.5-20.25-99.5-54.5-81.75-81.75-54.5-99.5-20.25zM256 416q-52 0-96.25-25.5t-70-69.75-25.75-96.5 25.75-96.5 70-70 96.25-25.75 96.25 25.75 70 70 25.75 96.5-25.75 96.5-70 69.75-96.25 25.5zM256 192q-17.5 0-27 15l-117 65 144-16q17.5 0 27-15l117-65z" />
<glyph unicode="&#xe61d;" d="M503 317.5l-309.5-309q-9-9-26.5-8.5-16 0.5-24.5 8.5l-133.5 133.5q-9 9-9 22t9 22l44.5 44.5q9 9 22 9t22-9l70.5-70.5 246.5 246q9 9 22 9t22-9l44.5-44q9-9.5 9-22.25t-9-22.25z" />
<glyph unicode="&#xe61e;" d="M448 0h-288q-26.5 0-45.25 18.75t-18.75 45.25h-32q-26.5 0-45.25 18.75t-18.75 45.25v256q0 26.5 18.75 45t45.25 18.5h384q26.5 0 45.25-18.5t18.75-45v-320q0-26.5-18.75-45.25t-45.25-18.75zM208 128q48 0 48 48t-48 48-48-48 48-48zM432 384h-323.5q-18.5 0-31.5-12.5t-13-30.5v-170.5q0-14.5 9-25.75t23-14.75v158q0 26.5 18.75 45.25t45.25 18.75h272q6.5 0 11.25 4.5t4.75 11.25-4.75 11.5-11.25 4.75z" />
<glyph unicode="&#xe61f;" d="M256-32q-52 0-99.5 20.25t-81.75 54.5-54.5 81.75-20.25 99.5 20.25 99.5 54.5 81.75 81.75 54.5 99.5 20.25 99.5-20.25 81.75-54.5 54.5-81.75 20.25-99.5-20.25-99.5-54.5-81.75-81.75-54.5-99.5-20.25zM256 448q-45.5 0-87-17.75t-71.5-47.75-47.75-71.5-17.75-87 17.75-87 47.75-71.5 71.5-47.75 87-17.75 87 17.75 71.5 47.75 47.75 71.5 17.75 87-17.75 87-47.75 71.5-71.5 47.75-87 17.75zM384 224l59.5-41.5q-12-54.5-51.75-94t-94.25-52l-41.5 59.5-41.5-59.5q-54.5 12.5-94.25 52t-51.75 94l59.5 41.5-59.5 41.5q12 54.5 51.75 94t94.25 52l41.5-59.5 41.5 59.5q54.5-12.5 94.25-52t51.75-94zM192 312v-176l144 88z" />
<glyph unicode="&#xe620;" d="M304 16l-290.5 289.5q-11 11-13.25 31.5t5.5 43.5 23.25 38.5l32 32q15.5 15.5 38.5 23.25t43.5 5.5 31.5-13.25l289.5-290.5 48-208zM117.5 338q-14.5-15-19.5-38t2-37.5q0-0.5-0.25-1.5l-0.25-1 170-170q9.5 11 14.75 28.5t5.5 32-1.75 25.5l-166 166zM162.5 438q-12 13-39.5 9.5t-45-21l-24.5-24.5q-17.5-17.5-21-45t9.5-39.5l23-23.5q4.5 37.5 28 61l32 32q23.5 23.5 61 27.5zM226 374.5q-12 12.5-39.25 9t-44.75-21l-4-4 166-166.5q11-2 25.5-1.75t32 5.5 28.5 14.75zM436 164l-27.5 27.5q-18-13.5-42.75-22t-45.75-9q0-21-8.75-46.25t-22.25-43.25l27-27 76-14.5q8 23 21.75 36.75t36.75 21.75z" />
<glyph unicode="&#xe621;" d="M395.5 65.5q-49-48-106.25-72.75t-113.25-24.75q-40.5 0-68.5 8.5t-44.5 25.5-23.75 39.75-7.25 54.25q0 45.5 18.25 89.75t50.75 82.75l-92 91.5q-11.5 11-8.5 36.25t19.5 41.75l22 22q16.5 16.5 41.75 19.5t36.25-8.5l60.5-61q23 23 43.5 37t53.25 23.5 74.75 9.5q33.5 0 61.25-10.5t45.75-27.25 30.25-38.25 17.5-42.5 5.25-41.5q0-62-31-131.5t-85.5-123zM352 448q-81 0-162-47.5l37-37q49 20.5 93 20.5 46.5 0 71.25-30.75t24.75-81.25q0-17-0.75-28t-4-27.75-9.75-29.5-19-28.5-30.5-30.25q13 22.5 22.5 64.5t9.5 79.5q0 31-17.5 55.5t-46.5 24.5q-32 0-67.5-14.5l66.5-66.5 33-143-143 33-81.5 81.5q-29.5-35.5-46.5-73.75t-17-72.75q0-19 5.5-35.25t17.75-30.5 35-22.25 53.75-8q49 0 102.25 22.5t95.25 64q47 46 76.75 112.75t29.75 120.75q0 14.5-5 31.25t-15.75 34-25.5 31.25-36.25 22.75-45.5 8.75z" />
<glyph unicode="&#xe622;" d="M448 288h-128l-64-256h-160l64 256h-96l-64 64 64 64h448z" />
<glyph unicode="&#xe623;" d="M448 117v-117q0-13.5-9.25-22.75t-22.75-9.25h-128v64q0 13.5-9.25 22.75t-22.5 9.25-22.75-9.25-9.5-22.75v-64h-128q-13 0-22.5 9.25t-9.5 22.75v117q-28 23.5-46 45.75t-18 31.25q0 26.5 16 30 5.5-2 33.75-13t46.25-17.5v62.5q-28.5 17.5-46.25 36.5t-17.75 29.5q0 30 16 30 7-2.5 28.5-11.75t38.25-14.75 29.25-5.5q13.5 0 27.25 9.25t27 26.25 22 31 20.25 34q-16.5 9-16.5 27.5 0 13.5 9.5 22.75t22.75 9.25 22.5-9.25 9.25-22.75q0-18.5-16.5-27.5 11-20 20-34t22.25-31 27-26.25 27.25-9.25q12.5 0 29.25 5.5t38.25 14.75 28.5 11.75q16 0 16-30 0-10.5-17.75-29.5t-46.25-36.5v-62.5q18 6.5 46.25 17.5t33.75 13q16-3.5 16-30 0-9-18-31.25t-46-45.75z" />
<glyph unicode="&#xe624;" d="M496 32h-144l-64 384h48q6.5 0 11.25-4.75t4.75-11.25v-32q0-6.5-4.75-11.25t-11.25-4.75h32q6.5 0 11.25-4.75t4.75-11.25v-32q0-6.5-4.75-11.25t-11.25-4.75h32q6.5 0 11.25-4.5t4.75-11.5v-32q0-6.5-4.75-11.25t-11.25-4.75h32q6.5 0 11.25-4.5t4.75-11.5v-32q0-6.5-4.75-11.25t-11.25-4.75h32q6.5 0 11.25-4.5t4.75-11.5v-32q0-6.5-4.75-11.25t-11.25-4.75h32q6.5 0 11.25-4.5t4.75-11.5v-32q0-6.5-4.75-11.25t-11.25-4.75zM192 32l32 384h64l32-384h-128zM16 32q-6.5 0-11.25 4.75t-4.75 11.25v32q0 6.5 4.75 11.25t11.25 4.75h32q-6.5 0-11.25 4.75t-4.75 11.25v32q0 6.5 4.75 11.25t11.25 4.75h32q-6.5 0-11.25 4.75t-4.75 11.25v32q0 6.5 4.75 11.25t11.25 4.75h32q-6.5 0-11.25 4.75t-4.75 11.25v32q0 6.5 4.75 11.25t11.25 4.75h32q-6.5 0-11.25 4.75t-4.75 11.25v32q0 6.5 4.75 11.25t11.25 4.75h32q-6.5 0-11.25 4.75t-4.75 11.25v32q0 6.5 4.75 11.25t11.25 4.75h48l-64-384h-144z" />
<glyph unicode="&#xe625;" d="M416 192l-80 112 48 48 128-160h-96zM0 64l240 320 240-320h-480z" />
<glyph unicode="&#xe626;" d="M448-32h-384q-26.5 0-45.25 18.75t-18.75 45.25v384q0 26.5 18.75 45.25t45.25 18.75h384q26.5 0 45.25-18.75t18.75-45.25v-384q0-26.5-18.75-45.25t-45.25-18.75zM128 192q-40 0-68-28t-28-68 28-68 68-28 68 28 28 68-28 68-68 28zM384 192q-40 0-68-28t-28-68 28-68 68-28 68 28 28 68-28 68-68 28z" />
<glyph unicode="&#xe627;" d="M320 32q-13.5 0-22.75 9.25t-9.25 22.75v320q0 13.5 9.25 22.75t22.75 9.25q52 0 96.25-25.75t70-70 25.75-96.25-25.75-96.25-70-70-96.25-25.75zM224 32h-192q-13 0-22.5 9.5t-9.5 22.5v320q0 13.5 9.5 22.75t22.5 9.25h192q13.5 0 22.75-9.25t9.25-22.75v-320q0-13.5-9.25-22.75t-22.75-9.25z" />
<glyph unicode="&#xe628;" d="M256-32q-52 0-99.5 20.25t-81.75 54.5-54.5 81.75-20.25 99.5 20.25 99.5 54.5 81.75 81.75 54.5 99.5 20.25 99.5-20.25 81.75-54.5 54.5-81.75 20.25-99.5-20.25-99.5-54.5-81.75-81.75-54.5-99.5-20.25zM149.5 27q49.5-27 106.5-27 61 0 112.5 30.5t81 81.5q-24-23-57.5-35.5t-72-12.5q-75 0-117.5 42.5t-42.5 117.5q0 34 22.5 61-40.5-19.5-63.5-55.75t-23-85.25q0-29.5 14-61.25t39.5-55.75zM256 160q26.5 0 45.25 18.75t18.75 45.25-18.75 45.25-45.25 18.75-45.25-18.75-18.75-45.25 18.75-45.25 45.25-18.75zM62.5 336q24 23 57.5 35.5t72 12.5q75 0 117.5-42.5t42.5-117.5q0-34-22.5-61 40.5 19.5 63.5 55.75t23 85.25q0 29.5-14 61.25t-39.5 55.75q-49.5 27-106.5 27-61 0-112.5-30.5t-81-81.5z" />
<glyph unicode="&#xe629;" d="M256-32q-52 0-99.5 20.25t-81.75 54.5-54.5 81.75-20.25 99.5 20.25 99.5 54.5 81.75 81.75 54.5 99.5 20.25 99.5-20.25 81.75-54.5 54.5-81.75 20.25-99.5-20.25-99.5-54.5-81.75-81.75-54.5-99.5-20.25zM256 448q-45.5 0-87-17.75t-71.5-47.75-47.75-71.5-17.75-87 17.75-87 47.75-71.5 71.5-47.75 87-17.75 87 17.75 71.5 47.75 47.75 71.5 17.75 87-17.75 87-47.75 71.5-71.5 47.75-87 17.75zM352 96q-26.5 0-45.25 18.75t-18.75 45.25 18.75 45.25 45.25 18.75 45.25-18.75 18.75-45.25-18.75-45.25-45.25-18.75zM256 256q-26.5 0-45.25 18.75t-18.75 45.25 18.75 45.25 45.25 18.75 45.25-18.75 18.75-45.25-18.75-45.25-45.25-18.75zM224 160q0-26.5-18.75-45.25t-45.25-18.75-45.25 18.75-18.75 45.25 18.75 45.25 45.25 18.75 45.25-18.75 18.75-45.25z" />
<glyph unicode="&#xe62a;" d="M448-32h-129q1 6.5 1 12.5 0 42.5-9.75 85.25t-27.25 63.75q65 5.5 99 38.25t34 84.75q0 45.5-32 70v45.5q0 5-5.5 10.5t-10.5 5.5q-6 0-59.5-35-23.5 3-52.5 3t-52.5-3q-53.5 35-59.5 35-5 0-10.5-5.5t-5.5-10.5q0-4.5-1-22t-1.5-25.5q-29.5-24.5-29.5-68 0-52 34-84.75t99-38.25q-2.5-3.5-7-10.5-21.5-23-62-23-8 0-16 6.5t-15.75 16-16.25 19-21 16-27 6.5q0-4 5-10.25t13.25-16.5 13.75-21.25q13-25.5 27-36.75t37-11.25q24 0 43.5 7-11.5-44-11.5-90.5 0-6 1-12.5h-129q-26.5 0-45.25 18.75t-18.75 45.25v384q0 26.5 18.75 45.25t45.25 18.75h384q26.5 0 45.25-18.75t18.75-45.25v-384q0-26.5-18.75-45.25t-45.25-18.75z" />
<glyph unicode="&#xe62b;" d="M416 352q-32 0-51.5 26-90.5-20-154.75-101t-78.25-192.5q13-8.5 20.75-22.5t7.75-30q0-26.5-18.75-45.25t-45.25-18.75-45.25 18.75-18.75 45.25q0 17.5 8.75 32t23.25 23v361q0 13 9.25 22.5t22.5 9.5 22.75-9.5 9.5-22.5v-177.5q40 68 99.5 112.75t130 58.75q7.5 17 23.25 27.5t35.25 10.5q26.5 0 45.25-18.75t18.75-45.25-18.75-45.25-45.25-18.75zM96.25 64q-13.25 0-22.75-9.25t-9.5-22.5 9.5-22.75 22.75-9.5 22.5 9.5 9.25 22.75-9.25 22.5-22.5 9.25zM416.25 448q-13.25 0-22.75-9.5t-9.5-22.75 9.5-22.5 22.75-9.25 22.5 9.5 9.25 22.5-9.25 22.5-22.5 9.5z" />
<glyph unicode="&#xe62c;" d="M416-32q-19.5 0-35.25 10.5t-23.25 27.5q-70.5 14-130 58.75t-99.5 112.75v-90.5q14.5-8.5 23.25-23t8.75-32q0-26.5-18.75-45.25t-45.25-18.75-45.25 18.75-18.75 45.25q0 17.5 8.75 32t23.25 23v274q-14.5 8.5-23.25 23t-8.75 32q0 26.5 18.75 45.25t45.25 18.75 45.25-18.75 18.75-45.25q0-16.5-7.75-30.5t-20.75-22.5q14-111.5 78.5-192.25t154.5-100.75q19.5 26 51.5 26 26.5 0 45.25-18.75t18.75-45.25-18.75-45.25-45.25-18.75zM95.75 0q13.25 0 22.75 9.25t9.5 22.5-9.5 22.75-22.75 9.5-22.5-9.5-9.25-22.75 9.25-22.5 22.5-9.25zM95.75 448q-13.25 0-22.5-9.25t-9.25-22.75 9.25-22.75 22.5-9.25 22.75 9.5 9.5 22.75-9.5 22.5-22.75 9.25zM415.75 64q-13.25 0-22.5-9.25t-9.25-22.75 9.25-22.75 22.5-9.25 22.75 9.5 9.5 22.75-9.5 22.5-22.75 9.25z" />
<glyph unicode="&#xe62d;" d="M448 361v-201q0-43.5-21.5-80.25t-58.25-58.25-80.25-21.5v-32l-96 64 96 64v-32q40 0 68 28t28 68v201q-14.5 8.5-23.25 23t-8.75 32q0 26.5 18.75 45.25t45.25 18.75 45.25-18.75 18.75-45.25q0-17.5-8.75-32t-23.25-23zM416 448q-13.5 0-22.75-9.25t-9.25-22.75 9.25-22.75 22.5-9.25 22.75 9.5 9.5 22.75-9.25 22.5-22.75 9.25zM224 384q-40 0-68-28t-28-68v-201q14.5-8.5 23.25-23t8.75-32q0-26.5-18.75-45.25t-45.25-18.75-45.25 18.75-18.75 45.25q0 17.5 8.75 32t23.25 23v201q0 43.5 21.5 80.25t58.25 58.25 80.25 21.5v32l96-64-96-64v32zM96.25 64q-13.25 0-22.75-9.25t-9.5-22.75 9.25-22.75 22.75-9.25 22.75 9.5 9.25 22.75-9.25 22.5-22.5 9.25z" />
<glyph unicode="&#xe62e;" d="M160 128v16l65.5 88.5q2.5 10 11 16.75t19.5 6.75q10.5 0 19-6.25t11.5-16.25l97.5-121.5v-16h-16l-112.5 90.5-79.5-58.5h-16zM256-32q-52 0-98.75 19.75t-82.25 55.25l45.5 45q26.5-26.5 61.5-41.25t74-14.75q52 0 96.25 25.75t70 70 25.75 96.25-25.75 96.25-70 70-96.25 25.75q-47 0-87.5-21.5t-67.5-58l27-27q0-9-6.25-15.25t-14.75-6.25h-85.5q-9 0-15.25 6.25t-6.25 15.25v85q0 8.5 6.25 14.75t15.25 6.25l34-33.5q35.5 45.5 88 71.75t112.5 26.25q52 0 99.5-20.25t81.75-54.5 54.5-81.75 20.25-99.5-20.25-99.5-54.5-81.75-81.75-54.5-99.5-20.25z" />
<glyph unicode="&#xe62f;" d="M416 112v-32q0-6.5 4.75-11.25t11.25-4.75 11.25-4.75 4.75-11.25-4.75-11.25-11.25-4.75h-176v-64l-48 32-48-32v64h-64q-13 0-22.5 9.25t-9.5 22.75v384q0 13 9.5 22.5t22.5 9.5h320q13.5 0 22.75-9.5t9.25-22.5v-320h-16q-6.5 0-11.25-4.75t-4.75-11.25zM96 112v-32q0-6.5 4.75-11.25t11.25-4.75h48v32h96v-32h112q6.5 0 11.25 4.75t4.75 11.25v32q0 6.5-4.75 11.25t-11.25 4.75h-256q-6.5 0-11.25-4.75t-4.75-11.25zM416 432q0 6.5-4.75 11.25t-11.25 4.75h-256q-6.5 0-11.25-4.75t-4.75-11.25v-256q0-6.5 4.75-11.25t11.25-4.75h256q6.5 0 11.25 4.75t4.75 11.25v256zM336 288h-128q-6.5 0-11.25 4.75t-4.75 11.25 4.75 11.25 11.25 4.75h128q6.5 0 11.25-4.75t4.75-11.25-4.75-11.25-11.25-4.75zM336 352h-128q-6.5 0-11.25 4.75t-4.75 11.25 4.75 11.25 11.25 4.75h128q6.5 0 11.25-4.75t4.75-11.25-4.75-11.25-11.25-4.75z" />
<glyph unicode="&#xe630;" d="M256-32q-52 0-99.5 20.25t-81.75 54.5-54.5 81.75-20.25 99.5 20.25 99.5 54.5 81.75 81.75 54.5 99.5 20.25 99.5-20.25 81.75-54.5 54.5-81.75 20.25-99.5-20.25-99.5-54.5-81.75-81.75-54.5-99.5-20.25zM256 416q-52 0-96.25-25.75t-70-70-25.75-96.25 25.75-96.25 70-70 96.25-25.75 96.25 25.75 70 70 25.75 96.25-25.75 96.25-70 70-96.25 25.75zM272 64h-32q-6.5 0-11.25 4.75t-4.75 11.25v32q0 6.5 4.75 11.25t11.25 4.75h32q6.5 0 11.25-4.75t4.75-11.25v-32q0-6.5-4.75-11.25t-11.25-4.75zM272 160h-32q-6.5 0-11.25 4.75t-4.75 11.25v192q0 6.5 4.75 11.25t11.25 4.75h32q6.5 0 11.25-4.75t4.75-11.25v-192q0-6.5-4.75-11.25t-11.25-4.75z" />
<glyph unicode="&#xe631;" d="M320 288v32h32l32-32 96 96h32v-32l-128-128zM272 160h-32q-6.5 0-11.25 4.75t-4.75 11.25v192q0 6.5 4.75 11.25t11.25 4.75h32q6.5 0 11.25-4.75t4.75-11.25v-192q0-6.5-4.75-11.25t-11.25-4.75zM288 80q0-6.5-4.75-11.25t-11.25-4.75h-32q-6.5 0-11.25 4.75t-4.75 11.25v32q0 6.5 4.75 11.25t11.25 4.75h32q6.5 0 11.25-4.75t4.75-11.25v-32zM256 416q-52 0-96.25-25.75t-70-70-25.75-96.25 25.75-96.25 70-70 96.25-25.75 96.25 25.75 70 70 25.75 96.25q0 3-0.5 12l55 55.5q9.5-34 9.5-67.5 0-52-20.25-99.5t-54.5-81.75-81.75-54.5-99.5-20.25-99.5 20.25-81.75 54.5-54.5 81.75-20.25 99.5 20.25 99.5 54.5 81.75 81.75 54.5 99.5 20.25q54.5 0 103-21.5t84-60l-45-45.5q-27 29.5-63.75 46.25t-78.25 16.75z" />
<glyph unicode="&#xe632;" d="M480 192q-13.5 0-22.75 9.25t-9.25 22.75q0 52-25.75 96.25t-70 70-96.25 25.75q-70.5 0-124.5-46l28.5-28.5q0-9-6.25-15.25t-14.75-6.25h-86q-8.5 0-14.75 6.25t-6.25 15.25v85q0 9 6.25 15.25t14.75 6.25l33-33q34.5 31 78.25 48t91.75 17q52 0 99.5-20.25t81.75-54.5 54.5-81.75 20.25-99.5q0-13.5-9.25-22.75t-22.75-9.25zM272 160h-32q-6.5 0-11.25 4.75t-4.75 11.25v192q0 6.5 4.75 11.25t11.25 4.75h32q6.5 0 11.25-4.75t4.75-11.25v-192q0-6.5-4.75-11.25t-11.25-4.75zM288 80q0-6.5-4.75-11.25t-11.25-4.75h-32q-6.5 0-11.25 4.75t-4.75 11.25v32q0 6.5 4.75 11.25t11.25 4.75h32q6.5 0 11.25-4.75t4.75-11.25v-32zM64 224q0-52 25.75-96.25t70-70 96.25-25.75q70.5 0 124.5 46l-28.5 28.5q0 9 6.25 15.25t14.75 6.25h86q8.5 0 14.75-6.25t6.25-15.25v-85q0-9-6.25-15.25t-14.75-6.25l-33 33q-34.5-31-78.25-48t-91.75-17q-52 0-99.5 20.25t-81.75 54.5-54.5 81.75-20.25 99.5q0 13 9.5 22.5t22.5 9.5 22.5-9.5 9.5-22.5z" />
<glyph unicode="&#xe633;" d="M256 0l-256 288 128 160h256l128-160zM368 416h-224l-96-128 208-240 208 240zM256 96v288h95l65-96z" />
<glyph unicode="&#xe634;" d="M304 0h-160q-22 0-35 22.75t-13 49.25q0 2.5 0.75 7t7.75 21 19 36 38.25 51.75 62.25 68.25 68 62.25 52.25 38.25 35.5 19 21.75 7.5l6.5 1q26.5 0 49.25-13t22.75-35v-160q0-25.5-17.75-57t-43.75-57.5-57.5-43.75-57-17.75zM397.75 334q-10.25 10-54.25-19.5t-96-81.75-81.5-96.25-19.5-54.25 54 19.5 96 81.75 81.75 96.25 19.5 54.25zM306.5 355.25q-9.5-5.25-20-2.5t-16 11.75l-27 78q-5.5 9-2.75 19t12.25 15.25 20.25 2.5 16.25-11.75l27-78.5q5.5-8.5 2.5-18.5t-12.5-15.25zM150 295.5l-79 78.5q-7 7.5-7 17.5t7.25 17.25 17.25 7.25 17.5-7l78.5-79q7-7 7-17.25t-7-17.5-17.25-7.25-17.25 7.5zM124.75 173.5q-5.25-9.5-15.25-12.5t-18.5 2.5l-78.5 27q-9 5.5-11.75 16.25t2.5 20.25 15.25 12.25 19-2.75l78-27q9-5.5 11.75-16t-2.5-20z" />
<glyph unicode="&#xe635;" d="M504.75-24.75q-7.25-7.25-17.25-7.25t-17.5 7l-463 463.5q-7 7-7 17.25t7.25 17.5 17.25 7.25 17.5-7.5l463-463q7-7 7-17.25t-7.25-17.5zM334 223q36 41 54 72t10 39.25-39-10-72-54.25l-23.5 23.5q28 25 53.25 43.75t41.25 27.25 28 13.5 17 5.5l5.5 0.5q26.5 0 49.25-13t22.75-35v-160q0-32-27-72.5zM210.5 193q-36-41-54-71.75t-10-39 39 9.75 71.5 54.5l120-120q-40.5-26.5-72.5-26.5h-160.5q-22 0-35 22.75t-13 49.25q0 2 0.75 5.5t5.5 16.5 13.25 28.25 27.25 40.75 44.25 53.5z" />
<glyph unicode="&#xe636;" d="M176-32l-32 32q0 27-23.25 76.25t-56.75 82.25l-11 11q-44.5 44.5-51.75 106.5t23.75 114q-11 6.5-18 17.5t-7 24.5q0 19.5 14.25 33.75t33.75 14.25q13.5 0 24.75-7t17.25-18.5q52 31 114 23.5t106-51.5l11-11q33-33 82.75-56.25t76.25-23.25l32-32q0-64.5-28-126.5t-73.75-107.75-107.75-73.75-126.5-28zM456.5 280.5q-15.5 14.5-52.25 1t-80.75-49q13-7.5 20.75-20.25t7.75-28.25q0-23.5-16.25-39.75t-39.75-16.25q-15.5 0-28.25 7.75t-20.25 20.75q-35.5-44-49-80.75t1-52.25q18.5-18.5 69 6t104 78 78 104 6 69z" />
<glyph unicode="&#xe637;" d="M480-32h-256q-13.5 0-22.75 9.25t-9.25 22.75v448q0 13.5 9.25 22.75t22.75 9.25h256q13.5 0 22.75-9.25t9.25-22.75v-448q0-13.5-9.25-22.75t-22.75-9.25zM480 448h-256v-448h256v448zM96 64v320q0 13.5 9.25 22.75t22.75 9.25h32v-32h-32v-320h32v-32h-32q-13.5 0-22.75 9.25t-9.25 22.75zM0 128v192q0 13 9.25 22.5t22.75 9.5h32v-32h-32v-192h32v-32h-32q-13.5 0-22.75 9.25t-9.25 22.75z" />
<glyph unicode="&#xe638;" d="M480 0h-192q-13.5 0-22.75 9.25t-9.25 22.75v352q0 13.5 9.25 22.75t22.75 9.25h192q13.5 0 22.75-9.25t9.25-22.75v-32q0-13-9.25-22.5t-22.75-9.5h-128v-224h64v64q-13.5 0-22.75 9.25t-9.25 22.75v32q0 13 9.25 22.5t22.75 9.5h64q13 0 22.5-9.5t9.5-22.5v-192q0-13.5-9.25-22.75t-22.75-9.25zM192 0h-160q-13.5 0-22.75 9.25t-9.25 22.75v192q0 13.5 9.25 22.75t22.75 9.25h96v64h-96q-13.5 0-22.75 9.25t-9.25 22.75v32q0 13.5 9.25 22.75t22.75 9.25h160q13.5 0 22.75-9.25t9.25-22.75v-192q0-13-9.25-22.5t-22.75-9.5h-96v-64h96q13.5 0 22.75-9.25t9.25-22.75v-32q0-13-9.25-22.5t-22.75-9.5z" />
<glyph unicode="&#xe639;" d="M480 0h-192q-13 0-22.5 9.25t-9.5 22.75v352q0 13.5 9.5 22.75t22.5 9.25h192q13.5 0 22.75-9.25t9.25-22.75v-32q0-13.5-9.25-22.75t-22.75-9.25h-128v-224h64v64q-13 0-22.5 9.25t-9.5 22.75v32q0 13 9.5 22.5t22.5 9.5h64q13.5 0 22.75-9.5t9.25-22.5v-192q0-13.5-9.25-22.75t-22.75-9.25zM192 0h-160q-13.5 0-22.75 9.25t-9.25 22.75v32q0 13 9.25 22.5t22.75 9.5h96v64h-96q-13 0-22.5 9.25t-9.5 22.75v32q0 13 9.5 22.5t22.5 9.5h96v64h-96q-13.5 0-22.75 9.25t-9.25 22.75v32q0 13 9.25 22.5t22.75 9.5h160q13.5 0 22.75-9.5t9.25-22.5v-352q0-13.5-9.25-22.75t-22.75-9.25z" />
<glyph unicode="&#xe63a;" d="M480 0h-192q-13 0-22.5 9.25t-9.5 22.75v352q0 13 9.5 22.5t22.5 9.5h192q13.5 0 22.75-9.5t9.25-22.5v-32q0-13.5-9.25-22.75t-22.75-9.25h-128v-224h64v64q-13 0-22.5 9.25t-9.5 22.75v32q0 13 9.5 22.5t22.5 9.5h64q13.5 0 22.75-9.5t9.25-22.5v-192q0-13.5-9.25-22.75t-22.75-9.25zM192 0h-32q-13 0-22.5 9.25t-9.5 22.75v128h-96q-13 0-22.5 9.25t-9.5 22.75v192q0 13 9.5 22.5t22.5 9.5h32q13.5 0 22.75-9.5t9.25-22.5v-128h32v128q0 13 9.5 22.5t22.5 9.5h32q13.5 0 22.75-9.5t9.25-22.5v-352q0-13.5-9.25-22.75t-22.75-9.25z" />
<glyph unicode="&#xe63b;" d="M480 192q-13.5 0-22.75 9.25t-9.25 22.75q0 52-25.75 96.25t-70 70-96.25 25.75q-13 0-22.5 9.25t-9.5 22.5 9.5 22.75 22.5 9.5q52 0 99.5-20.25t81.75-54.5 54.5-81.75 20.25-99.5q0-13.5-9.25-22.75t-22.75-9.25zM384.25 192q-13.25 0-22.75 9.25t-9.5 22.75q0 40-28 68t-68 28q-13 0-22.5 9.25t-9.5 22.5 9.5 22.75 22.5 9.5q43.5 0 80.25-21.5t58.25-58.25 21.5-80.25q0-13.5-9.25-22.75t-22.5-9.25zM320 224q0-33-27-52l113.5-114q9.5-9 9.5-22.25t-9.5-22.75q-17-17.5-49.5-28t-60.5-13.75-56.5-3.25q-27.5 0-56 5t-62.5 20.25-57.5 38.75-38.5 57.5-20.25 62.75-5.25 55.75q0 29 3 57t13.75 60.25 28.25 49.75q9.5 9.5 22.75 9.5t22.25-9.5l114-114q19 27 52 27 26.5 0 45.25-18.75t18.75-45.25z" />
<glyph unicode="&#xe63c;" d="M256-32q-52 0-99.5 20.25t-81.75 54.5-54.5 81.75-20.25 99.5 20.25 99.5 54.5 81.75 81.75 54.5 99.5 20.25 99.5-20.25 81.75-54.5 54.5-81.75 20.25-99.5-20.25-99.5-54.5-81.75-81.75-54.5-99.5-20.25zM256 384q-43.5 0-80.25-21.5t-58.25-58.25-21.5-80.25 21.5-80.25 58.25-58.25 80.25-21.5 80.25 21.5 58.25 58.25 21.5 80.25-21.5 80.25-58.25 58.25-80.25 21.5z" />
<glyph unicode="&#xe63d;" d="M256-32q-69.5 0-128.5 34.25t-93.25 93.25-34.25 128.5q0 52 19.75 98.75t55.25 82.25l22.5-22.5q31 31 72 48.25t86.5 17.25v32q52 0 99.5-20.25t81.75-54.5 54.5-81.75 20.25-99.5-20.25-99.5-54.5-81.75-81.75-54.5-99.5-20.25zM120 360l23-23q-22.5-22-34.75-51.25t-12.25-61.75q0-43.5 21.5-80.25t58.25-58.25 80.25-21.5 80.25 21.5 58.25 58.25 21.5 80.25-21.5 80.25-58.25 58.25-80.25 21.5v32q-39 0-74-14.75t-62-41.25z" />
<glyph unicode="&#xe63e;" d="M256-32q-52 0-99.5 20.25t-81.75 54.5-54.5 81.75-20.25 99.5h32q0 45.5 17.75 87t47.75 71.5 71.5 47.75 87 17.75v32q52 0 99.5-20.25t81.75-54.5 54.5-81.75 20.25-99.5-20.25-99.5-54.5-81.75-81.75-54.5-99.5-20.25zM64 224h32q0-43.5 21.5-80.25t58.25-58.25 80.25-21.5 80.25 21.5 58.25 58.25 21.5 80.25-21.5 80.25-58.25 58.25-80.25 21.5v32q-52 0-96.25-25.75t-70-70-25.75-96.25z" />
<glyph unicode="&#xe63f;" d="M256-32q-52 0-98.75 19.75t-82.25 55.25l22.5 22.5q-31 31-48.25 72t-17.25 86.5 17.75 87 47.75 71.5 71.5 47.75 87 17.75v32q52 0 99.5-20.25t81.75-54.5 54.5-81.75 20.25-99.5-20.25-99.5-54.5-81.75-81.75-54.5-99.5-20.25zM64 224q0-39 14.75-74t41.25-62l23 23q22-22.5 51.25-34.75t61.75-12.25q43.5 0 80.25 21.5t58.25 58.25 21.5 80.25-21.5 80.25-58.25 58.25-80.25 21.5v32q-52 0-96.25-25.75t-70-70-25.75-96.25z" />
<glyph unicode="&#xe640;" d="M256-32v32q-45.5 0-87 17.75t-71.5 47.75-47.75 71.5-17.75 87 17.75 87 47.75 71.5 71.5 47.75 87 17.75v32q52 0 99.5-20.25t81.75-54.5 54.5-81.75 20.25-99.5-20.25-99.5-54.5-81.75-81.75-54.5-99.5-20.25zM64 224q0-52 25.75-96.25t70-70 96.25-25.75v32q43.5 0 80.25 21.5t58.25 58.25 21.5 80.25-21.5 80.25-58.25 58.25-80.25 21.5v32q-52 0-96.25-25.75t-70-70-25.75-96.25z" />
<glyph unicode="&#xe641;" d="M437 43l-22.5 22.5q-31-31-72-48.25t-86.5-17.25-87 17.75-71.5 47.75-47.75 71.5-17.75 87 17.75 87 47.75 71.5 71.5 47.75 87 17.75v32q52 0 99.5-20.25t81.75-54.5 54.5-81.75 20.25-99.5-19.75-98.75-55.25-82.25zM64 224q0-52 25.75-96.25t70-70 96.25-25.75q39 0 74 14.75t62 41.25l-23 23q22.5 22 34.75 51.25t12.25 61.75q0 43.5-21.5 80.25t-58.25 58.25-80.25 21.5v32q-52 0-96.25-25.75t-70-70-25.75-96.25z" />
<glyph unicode="&#xe642;" d="M480 224q0-45.5-17.75-87t-47.75-71.5-71.5-47.75-87-17.75-87 17.75-71.5 47.75-47.75 71.5-17.75 87 17.75 87 47.75 71.5 71.5 47.75 87 17.75v32q52 0 99.5-20.25t81.75-54.5 54.5-81.75 20.25-99.5h-32zM64 224q0-52 25.75-96.25t70-70 96.25-25.75 96.25 25.75 70 70 25.75 96.25h-32q0 43.5-21.5 80.25t-58.25 58.25-80.25 21.5v32q-52 0-96.25-25.75t-70-70-25.75-96.25z" />
<glyph unicode="&#xe643;" d="M480 224q0-45.5-17.75-87t-47.75-71.5-71.5-47.75-87-17.75-87 17.75-71.5 47.75-47.75 71.5-17.75 87 17.75 87 47.75 71.5 71.5 47.75 87 17.75v32q52 0 98.75-19.75t82.25-55.25l-22.5-22.5q31-31 48.25-72t17.25-86.5zM64 224q0-52 25.75-96.25t70-70 96.25-25.75 96.25 25.75 70 70 25.75 96.25q0 39-14.75 74t-41.25 62l-23-23q-22 22.5-51.25 34.75t-61.75 12.25v32q-52 0-96.25-25.75t-70-70-25.75-96.25z" />
<glyph unicode="&#xe644;" d="M256 0q61 0 112.5 30t81.5 81.5 30 112.5-30 112.5-81.5 81.5-112.5 30-112.5-30-81.5-81.5-30-112.5 30-112.5 81.5-81.5 112.5-30zM256 416q52 0 96.25-25.75t70-70 25.75-96.25-25.75-96.25-70-70-96.25-25.75-96.25 25.75-70 70-25.75 96.25 25.75 96.25 70 70 96.25 25.75z" />
<glyph unicode="&#xe645;" d="M272 0q-62 0-116.5 30l-155.5-62 62 155.5q-30 54.5-30 116.5 0 49 19 93.25t51.25 76.5 76.5 51.25 93.25 19 93.25-19 76.5-51.25 51.25-76.5 19-93.25-19-93.25-51.25-76.5-76.5-51.25-93.25-19zM352 192h-32l-18-16q-22.5 6-55.25 38.75t-38.75 55.25l16 18v32q0 8.5-6 17t-13.25 12.25-10.25 0.75l-23.5-23.5q-19.5-19.5-5.75-60.75t52.5-80 80-52.5 60.75 5.75l23.5 23.5q3 3-0.75 10.25t-12.25 13.25-17 6z" />
<glyph unicode="&#xe646;" d="M272 0q-62 0-116.5 30l-155.5-62 62 155.5q-30 54.5-30 116.5 0 49 19 93.25t51.25 76.5 76.5 51.25 93.25 19 93.25-19 76.5-51.25 51.25-76.5 19-93.25-19-93.25-51.25-76.5-76.5-51.25-93.25-19zM272 416q-48 0-88.5-23.5t-64-64-23.5-88.5 23.5-88.5 64-64 88.5-23.5 88.5 23.5 64 64 23.5 88.5-23.5 88.5-64 64-88.5 23.5zM358.5 139q-19.5-19.5-60.75-5.75t-80 52.5-52.5 80 5.75 60.75l23.5 23.5q3 3 10.25-0.75t13.25-12.25 6-17v-32l-16-18q6-22.5 38.75-55.25t55.25-38.75l18 16h32q8.5 0 17-6t12.25-13.25 0.75-10.25z" />
<glyph unicode="&#xe647;" d="M451.5 85.5q-34.5-30.5-100-43.75t-135-7.75l-88-66v82.5q-43.5 13.5-68 35-29 25.5-45 73.25t-16 97.5 16 97.5 45.25 73.5 83.75 39.5 111.5 13.75 111.5-13.75 83.75-39.5 45.25-73.5 16-97.5-16-97.5-45-73.25zM319 208l32.5-5.5q-4 60-46.25 102.5t-102.25 46.5l5.5-32.5q43-5.5 74-36.5t36.5-74.5zM214 285.5l6-36q20-10 29.5-29.5l36-6q-6 26.5-25.5 45.75t-46 25.75zM160.5 256v32q0 8.5-6.25 17t-13.25 12.25-10.5 0.75l-23-23.5q-19.5-19.5-5.75-60.75t52.5-80 80-52.5 60.25 5.75l23.5 23.5q3.5 3-0.25 10.25t-12.25 13.25-17 6h-32l-18.5-16q-22 6-54.75 38.75t-38.75 55.25zM192.5 416l5-32.5q50-1 92.5-26.25t67.5-67.5 26.5-92.25l32.5-5.5q0 45.5-17.75 87t-47.75 71.5-71.5 47.75-87 17.75z" />
<glyph unicode="&#xe648;" d="M448-32h-384q-26.5 0-45.25 18.75t-18.75 45.25v384q0 26.5 18.75 45.25t45.25 18.75h384q26.5 0 45.25-18.75t18.75-45.25v-384q0-26.5-18.75-45.25t-45.25-18.75zM160 288v48q0 13.5-8.25 26.5t-18.25 18.5-15.5 0.5l-36.5-37q-15-15-17-40.25t7.75-55 31.25-63 51.5-63.25 63.25-51.5 63-31.5 55-8 40.25 17l37 37q5 5-0.5 15.25t-18.5 18.5-26.5 8.25h-48l-32.5-20q-22.5 6-55.5 32.5t-59.5 59.5-32.5 55.5zM351 208l32.5-5.5q-4 60-46.5 102.5t-102 46.5l5-32.5q43.5-5.5 74.5-36.5t36.5-74.5zM246 285.5l6-36q19.5-9.5 29.5-29.5l36-6q-6.5 26.5-25.75 45.75t-45.75 25.75zM224 416l5.5-32.5q50-1 92.25-26.25t67.5-67.5 26.25-92.25l32.5-5.5q0 45.5-17.75 87t-47.75 71.5-71.5 47.75-87 17.75z" />
<glyph unicode="&#xe649;" d="M448-32h-384q-26.5 0-45.25 18.75t-18.75 45.25v384q0 26.5 18.75 45.25t45.25 18.75h384q26.5 0 45.25-18.75t18.75-45.25v-384q0-26.5-18.75-45.25t-45.25-18.75zM256 416q-52 0-96.25-25.75t-70-70-25.75-96.25 25.75-96.25 70-70 96.25-25.75 96.25 25.75 70 70 25.75 96.25-25.75 96.25-70 70-96.25 25.75zM320 192h-128v-64l-96 96 96 96v-64h128v64l96-96-96-96v64z" />
<glyph unicode="&#xe64a;" d="M448 128h-96v96q0 26.5 18.75 45.25t45.25 18.75h96v-96q0-26.5-18.75-45.25t-45.25-18.75zM256-32h-96v128h160v-64q0-26.5-18.75-45.25t-45.25-18.75zM0 192v96h256q26.5 0 45.25-18.75t18.75-45.25v-96h-256q-26.5 0-45.25 18.75t-18.75 45.25zM240 320q-33 0-56.5 23.5t-23.5 56.5 23.5 56.5 56.5 23.5 56.5-23.5 23.5-56.5-23.5-56.5-56.5-23.5z" />
<glyph unicode="&#xe64b;" d="M448-32h-352q-26.5 0-45.25 18.75t-18.75 45.25v352q0 26.5 18.75 45.25t45.25 18.75h352q26.5 0 45.25-18.75t18.75-45.25v-352q0-26.5-18.75-45.25t-45.25-18.75zM272 384q-20 0-34-14t-14-34 14-34 34-14 34 14 14 34-14 34-34 14zM320 208q0 20-14.5 34t-35.5 14h-174v-48q0-20 14.5-34t35.5-14h174v48zM320 128h-96v-96h48q20 0 34 14t14 34v48zM448 256h-48q-20 0-34-14t-14-34v-48h48q20 0 34 14t14 34v48z" />
<glyph unicode="&#xe64c;" d="M485 27.5q-1.5-25-21.5-42.25t-46.5-17.25h-320q-26.5 0-46.5 17.25t-22 42.25l-28.5 374q-2 32 18 55t51 23h373.5q31 0 51.25-23t18.25-55zM256 415.5q-50 0-93.25-24.75t-66.75-71.25l109-43.5-40.5 80.5q-4.5 5-4.5 11.5t4.75 11.25 11.25 4.75 11-5l80.5-92q23-2 38-11.5l110.5 44q-23.5 46.5-66.75 71.25t-93.25 24.75z" />
<glyph unicode="&#xe64d;" d="M307.5 174q4.5 12.5 7.25 19.25t8 16.75 9.5 15.5 11.25 12.25 14.75 10.25 18.5 5.75 23.25 2.25q33 0 56.5-23.5t23.5-56.5q0-37-25.5-68.25t-70.5-50.75v-57q0-13.5-37.5-22.75t-90.5-9.25-90.5 9.25-37.5 22.75v72.5q-44.5 31-70.25 79.25t-25.75 104.25q0 45.5 17.75 87t47.75 71.5 71.5 47.75 87 17.75q37.5 0 70.75-6.5t61-19.25 44-35 16.25-51.25q0-22.5-7.75-39.25t-20.5-25-25.5-12-26.25-3.75q-25.5 0-52.75-27t-27.25-53q0-20 19.5-34z" />
<glyph unicode="&#xe64e;" d="M256-32q-52 0-99.5 20.25t-81.75 54.5-54.5 81.75-20.25 99.5 20.25 99.5 54.5 81.75 81.75 54.5 99.5 20.25 99.5-20.25 81.75-54.5 54.5-81.75 20.25-99.5-20.25-99.5-54.5-81.75-81.75-54.5-99.5-20.25zM170 225.5l43.5-114q-21.5-19-21.5-47.5 0-26.5 18.75-45.25t45.25-18.75 45.25 18.75 18.75 45.25q0 25-17 43.25t-42 20.25l-57.5 114.5q-0.5 1-2 3.5-4.5 9.5-7.5 15.25t-8.25 14.25-10.25 11.5-9 0q-6-4.5-6.5-16.5t2.75-23.75 7.25-20.75zM256 448q-45.5 0-87-17.75t-71.5-47.75-47.75-71.5-17.75-87h1q4 53 32.5 97t74.5 69.5 100 25.5 100-25.5 74.5-69.5 32.5-97h33q0 45.5-17.75 87t-47.75 71.5-71.5 47.75-87 17.75z" />
<glyph unicode="&#xe64f;" d="M384-32h-256q-22.5 0-37.5 14.5t-20.75 35.25-5.75 46.25v256h-32q-13 0-22.5 9.25t-9.5 22.75q0 53 37.5 90.5t90.5 37.5h256q24 0 44-20t20-44v-288h32q13.5 0 22.75-9.5t9.25-22.5q0-53-37.5-90.5t-90.5-37.5zM64 423q-32-29-32-71h32v71zM416 396q0 25-13.75 38.5t-34.25 13.5h-272v-396q0-37.5 43.5-48 17 7.5 29.5 23.25t18.5 36.75h-43.5q-6.5 0-11.25 4.75t-4.75 11.25 4.75 11.25 11.25 4.75h48q0 13 9.5 22.5t22.5 9.5h192v268zM224 96q0-55.5-36-96h196q40 0 68 28t28 68h-256zM128 176q0 6.5 4.75 11.25t11.25 4.75h224q6.5 0 11.25-4.75t4.75-11.25-4.75-11.25-11.25-4.75h-224q-6.5 0-11.25 4.75t-4.75 11.25zM368 256h-224q-6.5 0-11.25 4.75t-4.75 11.25 4.75 11.25 11.25 4.75h224q6.5 0 11.25-4.75t4.75-11.25-4.75-11.25-11.25-4.75zM368 352h-224q-6.5 0-11.25 4.75t-4.75 11.25 4.75 11.25 11.25 4.75h224q6.5 0 11.25-4.75t4.75-11.25-4.75-11.25-11.25-4.75z" />
<glyph unicode="&#xe650;" d="M510.5 52l-58-81.5q-2-2.5-4.75-2.5t-4.75 2.5l-58 81.5q-3 5 2 12h29v64q0 13-8.25 26.25t-23.75 25.75-30.25 22.75-35 23.25-30.75 21.5v-183.5h29q5-7 1.5-12l-58-81.5q-1.5-2.5-4.5-2.5t-5 2.5l-57.5 81.5q-3.5 5 1.5 12h29v181q-11-8-30.75-20.75t-34.75-22.75-30.25-22.25-23.75-25.25-8.5-26v0-64h29q5-7 1.5-12l-57.5-81.5q-2-2.5-5-2.5t-4.5 2.5l-58 81.5q-3.5 5 1.5 12h29v96q0 15 14.25 32.25t35.5 32.75 46.25 32.75 46.25 32.25 35.5 31.5 14.25 30.5v96q0 13 9.5 22.5t22.75 9.5 22.5-9.5 9.25-22.5v-96q0-13.5 14.25-29.75t35.5-31.25 46.25-32.5 46.25-33 35.5-33 14.25-32.5v-96h29q5-7 1.5-12z" />
<glyph unicode="&#xe651;" d="M288 144v-80h29q5-7 1.5-11.5l-58-82q-1.5-2.5-4.5-2.5t-5 2.5l-58 82q-3 4.5 2 11.5h29v80q0 16-19.75 36t-48 39-56.5 38.25-48 40.25-19.75 38.5v112q0 13 9.5 22.5t22.75 9.5 22.5-9.5 9.25-22.5v-80q0-13 8.5-26t23.75-25.25 30.25-22.25 34.75-22.75 30.75-21.25v197.5q0 13 9.5 22.5t22.75 9.5 22.5-9.5 9.25-22.5v-199.5q10.5 8 30.75 21t35 23.25 30.25 23 23.75 26 8.25 26.25v80q0 13 9.5 22.5t22.75 9.5 22.5-9.5 9.25-22.5v-112q0-17.5-19.75-38.5t-48-40.5-56.5-38.75-48-39-19.75-35.25z" />
<glyph unicode="&#xe652;" d="M480 128h-448q-13.5 0-22.75 9.25t-9.25 22.75q47.5 52 85.5 96h46.5l-84-96h416l-84 96h46.5q17-20 38.5-44t34-38l13-14q0-13.5-9.25-22.75t-22.75-9.25zM480 288h-448q-13.5 0-22.75 9.25t-9.25 22.75q75 82 112 128 6 7.5 18 15.5t21 12.5l9 4h192q3.5-1.5 9.25-4t18.75-11 20-17q16.5-21 44.5-53t48-53.5l19.5-21.5q0-13.5-9.25-22.75t-22.75-9.25zM352 448h-192l-112-128h416zM132 96l-84-96h416l-84 96h46.5q38.5-44.5 85.5-96 0-13-9.25-22.5t-22.75-9.5h-448q-13.5 0-22.75 9.5t-9.25 22.5q47.5 52 85.5 96h46.5z" />
<glyph unicode="&#xe653;" d="M503.75-23.75q-8.25-8.25-20-8.25t-19.75 8.5l-455.5 455.5q-8.5 8-8.5 19.75t8.25 20 20 8.25 19.75-8l455.5-455.5q8.5-8.5 8.5-20.25t-8.25-20zM366 190.5q18 30.5 18 65.5 0 13 9.5 22.5t22.75 9.5 22.5-9.5 9.25-22.5q0-62-35.5-112zM161.5 395q4 36 31 60.25t63.5 24.25q40 0 68-28t28-67.5v-128q0-21.5-9.5-42zM242.5 161.5q-31.5 4.5-54 26.75t-27 53.75zM96.25 288q13.25 0 22.75-9.5t9.5-22.5q0-53 37.25-90.5t90.25-37.5q8.5 0 18.5 1.5l51.5-52q-19-7.5-38-10.5v-35h64q13.5 0 22.75-9.5t9.25-22.75-9.25-22.5-22.75-9.25h-191.5q-13.5 0-22.75 9.25t-9.25 22.5 9.25 22.75 22.75 9.5h63.5v35q-68.5 11.5-114 64.75t-45.5 124.25q0 13 9.25 22.5t22.5 9.5z" />
<glyph unicode="&#xe654;" d="M448 96q0-2.5-0.25-7.25t-1.75-18-4.25-25.25-8.75-26.75-14-25.5-21.25-18-29.75-7.25q-31.5 0-59 10t-47.75 24-39.5 28-43.25 24-50.5 10q-38.5 0-51.25 2.5t-12.75 13.5q0 24 27.25 65.75t61 79.75 75.75 85.75 60 72.75q-21-10.5-30.25-14.75t-29.75-10.75-36-6.5q-26 0-45 20t-19 44q0 13 3.25 24.5t8 18.25 9.5 12 7.75 7.25l3.5 2q0.5-1.5 1.75-3.5t5.75-7.5 9.75-9.75 13.5-7.75 17.25-3.5q38 0 70 5t48.5 11 32 11 25.5 5q11.5 0 18.5-2.5t9.75-8 3.25-9.5 0.5-12q0-17.5-27.75-56.25t-63-77.5-77.5-87.5-62.75-77.75q28.5-10 70-32.25t74.25-37.5 54.75-15.25q39.5 0 62 29z" />
<glyph unicode="&#xe655;" d="M256-32q-2 0-15 1 31 33.5 31 79 0 31-7.25 47.5t-24.75 32.5q-8 7.5-27.25 17t-24.75 14q-9 5-18.5 15t-9.5 18 5.5 15.75 15.5 15 14.5 10 12.5 7.25q12.5 7 22.25 29t9.75 51q0 28-9.25 54.25t-27.25 41.75h36.5l32.5 32h-140q57.5 32 123.5 32 52 0 99.5-20.25t81.75-54.5 54.5-81.75 20.25-99.5-20.25-99.5-54.5-81.75-81.75-54.5-99.5-20.25zM432.5 352h-48v48q0 7-4.75 11.5t-11.5 4.5-11.25-4.5-4.5-11.5v-48h-48q-7 0-11.5-4.5t-4.5-11.25 4.5-11.5 11.5-4.75h48v-48q0-6.5 4.5-11.25t11.25-4.75 11.5 4.75 4.75 11.25v48h48q6.5 0 11.25 4.75t4.75 11.5-4.75 11.25-11.25 4.5zM128 160q-60.5 0-110.5-28-17.5 45-17.5 92 0 2 1 15 33-29.5 95.5-31v-16q0-6.5 3.25-12.5t7.25-9.25 9.5-5.75 7.75-3.25zM192 320q0-38-22.75-59t-57.25-21q-32.5 0-56.25 28.25t-23.75 67.75q0 6 1.5 14.5 20.5 36 52 64 6 1.5 10.5 1.5 39.5 0 67.75-28t28.25-68zM128 128q45.5 0 71-28.5t25.5-67.5q0-32-30.5-56-52 13-94 45.25t-68 78.75q40.5 28 96 28z" />
<glyph unicode="&#xe656;" d="M256-32q-52 0-99.5 20.25t-81.75 54.5-54.5 81.75-20.25 99.5 20.25 99.5 54.5 81.75 81.75 54.5 99.5 20.25 99.5-20.25 81.75-54.5 54.5-81.75 20.25-99.5-20.25-99.5-54.5-81.75-81.75-54.5-99.5-20.25zM406.5 352q-3-1.5-9-5.5l-9.75-6.5t-9.25-5-10.5-3.5q-18.5 20.5-45.5 20.5-58.5 0-58.5-49v-29.5q-80.5 4-123.5 59-12.5-13-12.5-28.5 0-33 24.5-50-3 0-8.5-0.5t-8.75 0-7.25 2.5q0-23 12.25-38.25t33.75-19.75q-5-6-14-6-8 0-14 4.5 0-19.5 18.75-30.25t42.25-11.25q-9-13.5-26.25-20.25t-36.75-6.75q-7 0-19.25 3.5t-12.75 3.5q8-16 32.75-27.5t62.75-11.5q33.5 0 62.5 11.75t49.5 31.25 35.25 44.5 22 51.75 7.25 52.75q0 1 6 4.25t14 8.75 12 11.5q-27 0-36-1 17.5 10.5 26.5 40.5z" />
<glyph unicode="&#xe657;" d="M320-23.5v151.5h32q13.5 0 22.75 6.25t9.25 15.25v21q0 9-9.25 15.25t-22.75 6.25h-32v64q0 13.5 9.5 22.75t22.75 9.25 22.5 6.25 9.25 15.25v21q0 9-9.25 15.25t-22.75 6.25q-53 0-74.5-21.5t-21.5-74.5v-64q-13 0-22.5-6.25t-9.5-15.25v-21q0-9 9.5-15.25t22.5-6.25v-160q-52 0-99.5 20.25t-81.75 54.5-54.5 81.75-20.25 99.5 20.25 99.5 54.5 81.75 81.75 54.5 99.5 20.25 99.5-20.25 81.75-54.5 54.5-81.75 20.25-99.5q0-88.5-54.25-157.25t-137.75-90.25z" />
<glyph unicode="&#xe658;" d="M256-32q-69.5 0-128.5 34.25t-93.25 93.25-34.25 128.5q0 52 20.25 99.5t54.5 81.75 81.75 54.5 99.5 20.25 99.5-20.25 81.75-54.5 54.5-81.75 20.25-99.5q0-69.5-34.25-128.5t-93.25-93.25-128.5-34.25zM416 312q0 3.5-2.25 5.75t-5.75 2.25h-112q-3.5 0-5.75-2.25t-2.25-5.75v-16q0-3.5 2.25-5.75t5.75-2.25h28l-64-70.5-59.5 102.5h47.5q3.5 0 5.75 2.25t2.25 5.75v16q0 3.5-2.25 5.75t-5.75 2.25h-112q-3.5 0-5.75-2.25t-2.25-5.75v-16q0-3.5 2.25-5.75t5.75-2.25h22.5v-0.5l65.5-115v-76.5h-24q-3.5 0-5.75-2.25t-2.25-5.75v-16q0-3.5 2.25-5.75t5.75-2.25h112q3.5 0 5.75 2.25t2.25 5.75v16q0 3.5-2.25 5.75t-5.75 2.25h-24v78l74.5 82h45.5q3.5 0 5.75 2.25t2.25 5.75v16z" />
<glyph unicode="&#xe659;" d="M319.5-24q0 0.5 0.25 1.75t0.25 2.25q0 42.5-9.75 85.5t-27.25 63.5q65 5.5 99 38.25t34 84.75q0 45.5-32 70v45.5q0 5.5-5.5 10.75t-10.5 5.25q-6 0-59.5-35-23.5 3-52.5 3-28.5 0-52.5-3-53.5 35-59.5 35-5 0-10.5-5.5t-5.5-10.5q0-4.5-1-22t-1.5-25.5q-29.5-24-29.5-68 0-52 34-84.75t99-38.25q-2.5-3.5-7-10-21.5-23.5-62-23.5-8 0-16 6.75t-15.75 16-16.25 18.75-21 16-27 6.5q0-4 4.75-10t13.25-16.5 14-21.5q13-25 27-36.5t37-11.5q24 0 43.5 7-11.5-44-11.5-90.5v-2t0.5-2q-84 21.5-138.25 90.25t-54.25 157.25q0 52.5 20.25 99.75t54.5 81.5 81.75 54.5 99.5 20.25 99.5-20.25 81.75-54.5 54.5-81.5 20.25-99.75q0-88.5-54.25-157.25t-138.25-90.25z" />
<glyph unicode="&#xe65a;" d="M464 64h-16v-96l-96 96h-208q-26.5 0-41 23l73 73h192q33 0 56.5 23.5t23.5 56.5v112h16q20 0 34-14t14-34v-192q0-20-14-34t-34-14zM368 192h-208l-96-96v96h-16q-20 0-34 14t-14 34v192q0 20 14 34t34 14h320q20 0 34-14t14-34v-192q0-20-14-34t-34-14z" />
<glyph unicode="&#xe65b;" d="M256-32q-52 0-99.5 20.25t-81.75 54.5-54.5 81.75-20.25 99.5 20.25 99.5 54.5 81.75 81.75 54.5 99.5 20.25 99.5-20.25 81.75-54.5 54.5-81.75 20.25-99.5-20.25-99.5-54.5-81.75-81.75-54.5-99.5-20.25zM256 352q-25 0-47.25-6.5t-40.75-19.25-29.25-35-10.75-51.25q0-32.5 20-60l21.5 21.5q-3.5 5.5-6.5 19t-3 19.5q0 33.5 30.25 56.75t65.75 23.25q34 0 65-20.25t31-43.75q0-25.5-17.25-44.75t-46.75-19.25q-9.5 0-13.75 0.25t-9.5 1.75-7 4.75-1.75 9.25v48q0 6.5-4.75 11.25t-11.25 4.75v0q-6.5 0-11.25-4.75t-4.75-11.25v-112q0-5.5-2.25-9.25t-7.5-5-9-1.5-11.25-0.25h-2q-7 0-11-4t-4.5-8l-0.5-4q0-6 1.75-9.5t6.5-4.75 8.25-1.5 11.5-0.25h20q13 0 22.5 9.25t9.5 22.75v48q0-6 10.75-11t21.25-5q46 0 71 27t25 69q0 30.5-19 53t-47.5 32.75-61.5 10.25z" />
<glyph unicode="&#xe65c;" d="M256-32q-52 0-99.5 20.25t-81.75 54.5-54.5 81.75-20.25 99.5 20.25 99.5 54.5 81.75 81.75 54.5 99.5 20.25 99.5-20.25 81.75-54.5 54.5-81.75 20.25-99.5-20.25-99.5-54.5-81.75-81.75-54.5-99.5-20.25zM328 352q-23 0-39.25-21.75t-16.75-49.25q8 7 18 7 10.5 0 16.25-5.25t5.75-18.75q0-12.5-8.75-31.75t-20.25-33.75-19-14.5q-3.5 0-7 8t-7 23.5-6 29.5-6.25 35.25-5.75 31.75q-7.5 40-32 40-36 0-72-64l8-16q5.5 6.5 13 11.25t11 4.75 6.25-2.25 4.25-6.5 2.5-7.75 1.75-8.5 1.25-7q2-9 6-33t8.25-43 11.25-39.75 18.75-32.5 27.75-11.75q19.5 0 52.25 34.25t58.25 80.75 25.5 77q0 64-56 64z" />
<glyph unicode="&#xe65d;" d="M256-32q-52 0-99.5 20.25t-81.75 54.5-54.5 81.75-20.25 99.5 20.25 99.5 54.5 81.75 81.75 54.5 99.5 20.25 99.5-20.25 81.75-54.5 54.5-81.75 20.25-99.5-20.25-99.5-54.5-81.75-81.75-54.5-99.5-20.25zM384 224q-12.5 0-24.75 2t-25.5 7.5-23 14.25-16.25 23.25-6.5 33q0 14.5 10.5 31.25t21.5 16.75q11.5 0 21.75-9.75t10.25-22.25q0-43-7-64h31.5q7.5 23 7.5 68 0 25.5-17.25 42.75t-46.75 17.25q-22.5 0-43.25-20.5t-20.75-49.5q0-25 7-47t15.25-34.75 19.25-23.25 15.5-13 7-4q0-8.5-14-28.25t-29.75-35.75-20.25-16q-2 0-12 9t-24.25 27.75-27.5 42.5-22.75 58.25-9.5 70.5h-32q0-50.5 12.25-95.25t29.75-73 36.5-49 32.25-29.75 17.25-9q3.5 0 18.25 11.25t32.25 28.25 31.5 41.75 14 46.75q20.5-1.5 32 0v32z" />
<glyph unicode="&#xe65e;" d="M448-32h-384q-26.5 0-45.25 18.75t-18.75 45.25v384q0 26.5 18.75 45.25t45.25 18.75h384q26.5 0 45.25-18.75t18.75-45.25v-384q0-26.5-18.75-45.25t-45.25-18.75zM128 448h-64v-128h64v128zM256 288q-40 0-68-28t-28-68 28-68 68-28 68 28 28 68-28 68-68 28zM448 400q0 6.5-4.75 11.25t-11.25 4.75h-32q-6.5 0-11.25-4.75t-4.75-11.25v-32q0-6.5 4.75-11.25t11.25-4.75h32q6.5 0 11.25 4.75t4.75 11.25v32zM480 288h-96q32-43 32-96 0-43.5-21.5-80.25t-58.25-58.25-80.25-21.5-80.25 21.5-58.25 58.25-21.5 80.25q0 53 32 96h-96v-256q0-13.5 9.25-22.75t22.75-9.25h384q13 0 22.5 9.25t9.5 22.75v256z" />
<glyph unicode="&#xe65f;" d="M448-32h-384q-26.5 0-45.25 18.75t-18.75 45.25v384q0 26.5 18.75 45.25t45.25 18.75h384q26.5 0 45.25-18.75t18.75-45.25v-384q0-26.5-18.75-45.25t-45.25-18.75zM64 448q-13 0-22.5-9.25t-9.5-22.75v-96h32v128zM256 32q43.5 0 80.25 21.5t58.25 58.25 21.5 80.25-21.5 80.25-58.25 58.25-80.25 21.5-80.25-21.5-58.25-58.25-21.5-80.25 21.5-80.25 58.25-58.25 80.25-21.5zM480 416q0 13.5-9.25 22.75t-22.75 9.25h-320v-113q55 49 128 49 42 0 79-17t64-47h81v96zM384 368v32q0 6.5 4.75 11.25t11.25 4.75h32q6.5 0 11.25-4.75t4.75-11.25v-32q0-6.5-4.75-11.25t-11.25-4.75h-32q-6.5 0-11.25 4.75t-4.75 11.25zM256 288q40 0 68-28t28-68-28-68-68-28-68 28-28 68 28 68 68 28z" />
<glyph unicode="&#xe660;" d="M400 128q-46.5 0-79.25 32.75t-32.75 79.25 32.75 79.25 79.25 32.75 79.25-32.75 32.75-79.25-32.75-79.25-79.25-32.75zM400 320q-33 0-56.5-23.5t-23.5-56.5 23.5-56.5 56.5-23.5 56.5 23.5 23.5 56.5-23.5 56.5-56.5 23.5zM112 128q-46.5 0-79.25 32.75t-32.75 79.25 32.75 79.25 79.25 32.75 79.25-32.75 32.75-79.25-32.75-79.25-79.25-32.75z" />
<glyph unicode="&#xe661;" d="M386 44.5q13-12.5 30-12.5 13.5 0 22.75-9.5t9.25-22.75-9.25-22.5-22.75-9.25q-21.5 0-48 12.5t-44.5 30.5q-33-11-67.5-11-45.5 0-87 19t-71.5 51.25-47.75 76.5-17.75 93.25 17.75 93.25 47.75 76.5 71.5 51.25 87 19 87-19 71.5-51.25 47.75-76.5 17.75-93.25q0-59.5-25.25-110.75t-68.75-84.75zM256 416q-35 0-64.25-23.5t-46.5-64-17.25-88.5 17.25-88.5 46.5-64 64.25-23.5q20.5 0 40 9-14.5 23-40 23-13 0-22.5 9.25t-9.5 22.5 9.5 22.75 22.5 9.5q21.5 0 47.75-12.25t44.25-30.25q36 51 36 122.5 0 48-17 88.5t-46.5 64-64.5 23.5z" />
<glyph unicode="&#xe662;" d="M448-32h-384q-26.5 0-45.25 18.75t-18.75 45.25v384q0 26.5 18.75 45.25t45.25 18.75h384q26.5 0 45.25-18.75t18.75-45.25v-384q0-26.5-18.75-45.25t-45.25-18.75zM384 240q0 59.5-37.5 101.75t-90.5 42.25-90.5-42.25-37.5-101.75 37.5-101.75 90.5-42.25q31.5 0 59 16.5 10.5-7 26-11.75t27-4.75q6.5 0 11.25 4.75t4.75 11.25-4.75 11.25-11.25 4.75q-12 0-22 9.5 38 42.5 38 102.5zM272 192q-6.5 0-11.25-4.75t-4.75-11.25 4.75-11.25 11.25-4.75q12 0 22-9.5-17-22.5-38-22.5-26.5 0-45.25 32.75t-18.75 79.25 18.75 79.25 45.25 32.75 45.25-32.75 18.75-79.25q0-30-9-57-21 9-39 9z" />
<glyph unicode="&#xe663;" d="M256-32q-69.5 0-128.5 34.25t-93.25 93.25-34.25 128.5 34.25 128.5 93.25 93.25 128.5 34.25 128.5-34.25 93.25-93.25 34.25-128.5-34.25-128.5-93.25-93.25-128.5-34.25zM384 240q0 59.5-37.5 101.75t-90.5 42.25-90.5-42.25-37.5-101.75 37.5-101.75 90.5-42.25q31.5 0 59 16.5 10.5-7 26-11.75t27-4.75q6.5 0 11.25 4.75t4.75 11.25-4.75 11.25-11.25 4.75q-12.5 0-22 9.5 38 42.5 38 102.5zM272 192q-6.5 0-11.25-4.75t-4.75-11.25 4.75-11.25 11.25-4.75q12 0 22-9.5-17-22.5-38-22.5-26.5 0-45.25 32.75t-18.75 79.25 18.75 79.25 45.25 32.75 45.25-32.75 18.75-79.25q0-30-9-57-21 9-39 9z" />
<glyph unicode="&#xe664;" d="M493 128h-109v317.5q58.5-34 93.25-92.75t34.75-128.75q0-49.5-19-96zM352 278l-185.5 185.5q44 16.5 89.5 16.5 49.5 0 96-19v-183zM226 360l-214-214q-12 38-12 78 0 72 37 132.5t98.5 93.5zM128 217.5v-215q-69 40-103 112zM160 96h317.5q-34-58.5-92.75-93.25t-128.75-34.75q-49.5 0-96 19v109z" />
<glyph unicode="&#xe665;" d="M496-32h-96q-6.5 0-11.25 4.75t-4.75 11.25v96q0 6.5 4.75 11.25t11.25 4.75h16v32q0 13-8.25 24.5t-23.75 21-30.25 17-35 16.5-30.75 15v-126h16q6.5 0 11.25-4.75t4.75-11.25v-96q0-6.5-4.75-11.25t-11.25-4.75h-96q-6.5 0-11.25 4.75t-4.75 11.25v96q0 6.5 4.75 11.25t11.25 4.75h16v123.5q-11-6-30.75-14.75t-34.75-15.75-30.25-16.25-23.75-20.5-8.5-24.25v-32h16q6.5 0 11.25-4.75t4.75-11.25v-96q0-6.5-4.75-11.25t-11.25-4.75h-96q-6.5 0-11.25 4.75t-4.75 11.25v96q0 6.5 4.75 11.25t11.25 4.75h16v64q0 15 14.25 30t35.5 26.75 46.25 25 46.25 24.75 35.5 25.5 14.25 28v32h-16q-6.5 0-11.25 4.75t-4.75 11.25v96q0 6.5 4.75 11.25t11.25 4.75h96q6.5 0 11.25-4.75t4.75-11.25v-96q0-6.5-4.75-11.25t-11.25-4.75h-16v-32q0-13.5 14.25-27.25t35.5-25.25 46.25-25 46.25-25.5 35.5-27 14.25-30v-64h16q6.5 0 11.25-4.75t4.75-11.25v-96q0-6.5-4.75-11.25t-11.25-4.75z" />
<glyph unicode="&#xe666;" d="M272-32l-240 128v256l240 128 240-128v-256zM480 336l-192 103.5v-87.5h-32v87.5l-192-103.5v-198.5l73 42.5 14-25-80.5-46.5 201.5-108.5 202 108.5-81 46.5 14.5 25 72.5-42.5v198.5zM96 320h352l-176-288zM272 233l87 55h-173.5zM177.5 258.5l78.5-135v84.5zM288 208v-84.5l79 135z" />
<glyph unicode="&#xe667;" d="M448-32h-384q-26.5 0-45.25 18.75t-18.75 45.25v384q0 26.5 18.75 45.25t45.25 18.75h384q26.5 0 45.25-18.75t18.75-45.25v-384q0-26.5-18.75-45.25t-45.25-18.75zM341.5 130q-14.5 0-33 11.5t-41.75 27.5-42.75 23q138.5 132 138.5 170 0 5.5-0.25 8.25t-2 6.5-6.5 5.5-12.25 1.75q-6.5 0-17-5t-21.5-11-32.25-11-46.75-5q-9.5 0-17.5 8t-11 16l-3.5 8q-1-0.5-2.5-1.5t-5-4.75-6.25-8.25-5.25-12.5-2.5-17q0-16 10-26t27.5-10 42.5 4.75 37.5 11.25q-15.5-17-46.75-45.25t-54-48.75-41-44.5-18.25-40.5q0-7.5 8.5-9.25t34-1.75q17.5 0 33.5-6.75t29-16.5 26.5-19.5 31.75-16.5 39.25-6.75q11 0 19.75 5t14.25 12.25 9.5 17.5 5.75 18.5 3 17.5 1.25 12.25v5q-1.5-2.5-4.5-6.25t-14-9.75-24-6z" />
<glyph unicode="&#xe668;" d="M256-32q-69.5 0-128.5 34.25t-93.25 93.25-34.25 128.5q0 52 20.25 99.5t54.5 81.75 81.75 54.5 99.5 20.25 99.5-20.25 81.75-54.5 54.5-81.75 20.25-99.5q0-69.5-34.25-128.5t-93.25-93.25-128.5-34.25zM341.5 130q-14.5 0-33 11.5t-41.75 27.5-42.75 23q138.5 132 138.5 170 0 5.5-0.25 8.25t-2.25 6.5-6.5 5.5-12 1.75q-6.5 0-17-5t-21.5-11-32.25-11-46.75-5q-9.5 0-17.5 8t-11 16l-3.5 8q-1-0.5-2.25-1.5t-5-4.75-6.5-8.25-5.25-12.5-2.5-17q0-16 10-26t27.5-10 42.5 4.75 37.5 11.25q-15.5-17-46.75-45.25t-54-48.75-41-44.5-18.25-40.5q0-7.5 8.5-9.25t34-1.75q17.5 0 33.5-6.75t29-16.5 26.5-19.5 31.75-16.5 39.25-6.75q11 0 19.75 5t14.25 12.25 9.5 17.5 5.75 18.5 3 17.5 1.25 12.25v5q-1.5-2.5-4.5-6.25t-14-9.75-24-6z" />
<glyph unicode="&#xe669;" d="M448-32h-384q-26.5 0-45.25 18.75t-18.75 45.25v384q0 26.5 18.75 45.25t45.25 18.75h384q26.5 0 45.25-18.75t18.75-45.25v-384q0-26.5-18.75-45.25t-45.25-18.75zM328 352q-23 0-39.25-21.75t-16.75-49.25q8 7 18 7 10.5 0 16.25-5.25t5.75-18.75q0-12.5-8.75-31.75t-20.25-33.75-19-14.5q-3.5 0-7 8t-7 23.5-6 29.5-6.25 35.25-5.75 31.75q-7.5 40-32 40-36 0-72-64l8-16q5.5 6.5 13 11.25t11 4.75 6.25-2.25 4.25-6.5 2.5-7.75 1.75-8.5 1.25-7q2-9 6-33t8.25-43 11.25-39.75 18.75-32.5 27.75-11.75q19.5 0 52.25 34.25t58.25 80.75 25.5 77q0 64-56 64z" />
<glyph unicode="&#xe66a;" d="M448-32h-384q-26.5 0-45.25 18.75t-18.75 45.25v384q0 26.5 18.75 45.25t45.25 18.75h384q26.5 0 45.25-18.75t18.75-45.25v-384q0-26.5-18.75-45.25t-45.25-18.75zM406.5 352q-3-1.5-9-5.75t-9.75-6.5-9.25-4.75-10.5-3.5q-18.5 20.5-45.5 20.5-58.5 0-58.5-49v-30q-80.5 4.5-123.5 59.5-12.5-13-12.5-28.5 0-33 24.5-50-3.5 0-8.75-0.5t-8.5 0-7.25 2.5q0-23 12.25-38.25t33.75-19.75q-5-6-14-6-8 0-14 4.5 0-19.5 18.75-30.25t42.25-11.25q-9-13.5-26.25-20.25t-36.75-6.75q-7 0-19.25 3.5t-12.75 3.5q8-16 32.75-27.5t62.75-11.5q33.5 0 62.5 11.75t49.5 31.25 35.25 44.5 22 51.75 7.25 52.75q0 1 6 4.25t14 8.5 12 11.75q-27 0-36-1 17.5 10.5 26.5 40.5z" />
<glyph unicode="&#xe66b;" d="M442 270.5l70-46.5-70-46.5q0-1-0.75-3t-1.25-2.5l37.5-76-84.5-5.5q-0.5-0.5-1.75-2t-1.75-2l-5.5-84-75.5 37q-1 0-3-0.75t-3-0.75l-46.5-70-46.5 70q-1 0-3 0.75t-3 0.75l-75.5-37-5.5 84.5q-0.5 0.5-2 1.75t-2 1.75l-84 5.5 37 76q0 0.5-0.75 2.5t-0.75 3l-70 46.5 70 46.5q0 1 0.75 3t1.25 2.5l-37.5 76 84.5 5.5q0.5 0.5 1.75 2t1.75 2l5.5 84 75.5-37q1 0 3 0.75t3 1.25l46.5 69.5 46.5-69.5q1-0.5 3-1.25t3-0.75l75.5 37 5.5-84.5q0.5-0.5 2-1.75t2-1.75l84-5.5-37.5-75.5q0.5-1 1.25-3t0.75-3zM256 352q-53 0-90.5-37.5t-37.5-90.5 37.5-90.5 90.5-37.5 90.5 37.5 37.5 90.5-37.5 90.5-90.5 37.5z" />
<glyph unicode="&#xe66c;" d="M442 270.5l70-46.5-70-46.5q0-1-0.75-3t-1.25-2.5l37.5-76-84.5-5.5q-0.5-0.5-1.75-2t-1.75-2l-5.5-84-75.5 37q-1 0-3-0.75t-3-0.75l-46.5-70-46.5 70q-1 0-3 0.75t-3 0.75l-75.5-37-5.5 84.5q-0.5 0.5-2 1.75t-2 1.75l-84 5.5 37.5 76q-0.5 0.5-1.25 2.5t-0.75 3l-70 46.5 70 46.5q0 1 0.75 3t1.25 2.5l-37.5 76 84.5 5.5q0.5 0.5 1.75 2t1.75 2l5.5 84 75.5-37q1 0 3 0.75t3 1.25l46.5 69.5 46.5-69.5q1-0.5 3-1.25t3-0.75l75.5 37 5.5-84.5q0.5-0.5 2-1.75t2-1.75l84-5.5-37-75.5q0-1 0.75-3t0.75-3zM256 352q-53 0-90.5-37.5t-37.5-90.5 37.5-90.5 90.5-37.5 90.5 37.5 37.5 90.5-37.5 90.5-90.5 37.5zM160 224.25q0 39.75 28 67.75t68 28v-192q-40 0-68 28.25t-28 68z" />
<glyph unicode="&#xe66d;" d="M442 270.5l70-46.5-70-46.5q0-1-0.75-3t-1.25-2.5l37.5-76-84.5-5.5q-0.5-0.5-1.75-2t-1.75-2l-5.5-84-75.5 37q-1 0-3-0.75t-3-0.75l-46.5-70-46.5 70q-1 0-3 0.75t-3 0.75l-75.5-37-5.5 84.5q-0.5 0.5-2 1.75t-2 1.75l-84 5.5 37.5 76q-0.5 0.5-1.25 2.5t-0.75 3l-70 46.5 70 46.5q0 1 0.75 3t1.25 2.5l-37.5 76 84.5 5.5q0.5 0.5 1.75 2t1.75 2l5.5 84 75.5-37q1 0 3 0.75t3 1.25l46.5 69.5 46.5-69.5q1-0.5 3-1.25t3-0.75l75.5 37 5.5-84.5q0.5-0.5 2-1.75t2-1.75l84-5.5-37.5-75.5q0.5-1 1.25-3t0.75-3zM256 352q-53 0-90.5-37.5t-37.5-90.5 37.5-90.5 90.5-37.5 90.5 37.5 37.5 90.5-37.5 90.5-90.5 37.5zM256 128q-40 0-68 28.25t-28 68 28 67.75 68 28 68-28 28-67.75-28-68-68-28.25z" />
<glyph unicode="&#xe66e;" d="M442 270.5l70-46.5-70-46.5q0-1-0.75-3t-0.75-2.5l37-76-84.5-5.5q-0.5-0.5-1.75-2t-1.75-2l-5.5-84-75.5 37q-1 0-3-0.75t-3-0.75l-46.5-70-46.5 70q-1 0-3 0.75t-3 0.75l-75.5-37-5.5 84.5q-0.5 0.5-2 1.75t-2 1.75l-84 5.5 37 76q0 0.5-0.75 2.5t-0.75 3l-70 46.5 70 46.5q0 1 0.75 3t1.25 2.5l-37.5 76 84.5 5.5q0.5 0.5 1.75 2t1.75 2l5.5 84 75.5-37q1 0 3 0.75t3 1.25l46.5 69.5 46.5-69.5q1-0.5 3-1.25t3-0.75l75.5 37.5 5.5-85q0.5-0.5 2-1.75t2-1.75l84-5.5-37-75.5q0-1 0.75-3t0.75-3zM256 352q-53 0-90.5-37.5t-37.5-90.5q0-44 27-78.5t69-45.5v-4h64v4q42 11 69 45.5t27 78.5q0 53-37.5 90.5t-90.5 37.5zM304 160q-6.5 0-11.25 4.75t-4.75 11.25v16h-64v-16q0-6.5-4.75-11.25t-11.25-4.75-11.25 4.75-4.75 11.25v80q0 13.5 9.25 22.75t22.75 9.25h64q13 0 22.5-9.25t9.5-22.75v-80q0-6.5-4.75-11.25t-11.25-4.75zM288 256h-64v-32h64v32z" />
<glyph unicode="&#xe66f;" d="M256-32q-52 0-99.5 20.25t-81.75 54.5-54.5 81.75-20.25 99.5 20.25 99.5 54.5 81.75 81.75 54.5 99.5 20.25 99.5-20.25 81.75-54.5 54.5-81.75 20.25-99.5-20.25-99.5-54.5-81.75-81.75-54.5-99.5-20.25zM256 416q-52 0-96.25-25.75t-70-70-25.75-96.25 25.75-96.25 70-70 96.25-25.75 96.25 25.75 70 70 25.75 96.25-25.75 96.25-70 70-96.25 25.75zM256 64q-43.5 0-80.25 21.5t-58.25 58.25-21.5 80.25 21.5 80.25 58.25 58.25 80.25 21.5 80.25-21.5 58.25-58.25 21.5-80.25-21.5-80.25-58.25-58.25-80.25-21.5zM159.75 256q-13.25 0-22.5-9.5t-9.25-22.75 9.25-22.5 22.5-9.25 22.75 9.25 9.5 22.75-9.5 22.75-22.75 9.25zM255.75 352q-13.25 0-22.5-9.5t-9.25-22.75 9.25-22.5 22.75-9.25 22.75 9.25 9.25 22.5-9.5 22.75-22.75 9.5zM255.75 160q-13.25 0-22.5-9.25t-9.25-22.75 9.25-22.75 22.75-9.25 22.75 9.25 9.25 22.75-9.5 22.75-22.75 9.25zM351.75 256q-13.25 0-22.5-9.5t-9.25-22.75 9.25-22.5 22.5-9.25 22.75 9.25 9.5 22.75-9.5 22.75-22.75 9.25z" />
<glyph unicode="&#xe670;" d="M496 192h-51q-11.5-68.5-64.75-114.25t-124.25-45.75q-39 0-74 14.75t-62 41.25l45.5 45.5q37.5-37.5 90.5-37.5t90.5 37.5 37.5 90.5v16q0 6.5 4.75 11.25t11.25 4.75h96q6.5 0 11.25-4.75t4.75-11.25v-32q0-6.5-4.75-11.25t-11.25-4.75zM320 224q0-26.5-18.75-45.25t-45.25-18.75-45.25 18.75-18.75 45.25 18.75 45.25 45.25 18.75 45.25-18.75 18.75-45.25zM256 352q-53 0-90.5-37.5t-37.5-90.5v-16q0-6.5-4.75-11.25t-11.25-4.75h-96q-6.5 0-11.25 4.75t-4.75 11.25v32q0 6.5 4.75 11.25t11.25 4.75h51q11.5 68.5 64.75 114.25t124.25 45.75q39 0 74-14.75t62-41.25l-45.5-45.5q-37.5 37.5-90.5 37.5z" />
<glyph unicode="&#xe671;" d="M416 224l96-192q-89.5 6-164.5 19-28.5 5-59 13.5l-64.5-32.5-15 38-33-22-80.5 218.5-86.5-29-9 18.5 72.5 72.5-8.5 23.5 37-12.5-5 12.5 48-16 59-122.5q25.5 19 36.5 25l32.5 17.5q13-4 28.5-9l147.5 201-50-224.5z" />
<glyph unicode="&#xe672;" d="M448-16q0-6.5-4.75-11.25t-11.25-4.75h-352q-6.5 0-11.25 4.75t-4.75 11.25q0 16-6.5 31.25t-16 29-19 29-16 37.75-6.5 49v112q0 6.5 4.75 11.25t11.25 4.75h297l105 184q3.5 6 10 7.75t12-1.5 7.25-9.75-1.25-12.5l-96-168h11l123.5 123.5q4.5 5 11.25 5t11.5-4.75 4.75-11.5-5-11.25l-101-101h90q6.5 0 11.25-4.75t4.75-11.25v-112q0-26.5-6.5-49.25t-16-38.25-19-29.25-16-28.75-6.5-30.5z" />
<glyph unicode="&#xe673;" d="M384 32h-272q-46.5 0-79.25 32.75t-32.75 79.25q0 42 27.5 73.5t68.5 37v1.5q0 43.5 21.5 80.25t58.25 58.25 80.25 21.5q50 0 90.25-28t58.25-73q47-12 77.25-50.75t30.25-88.25q0-55.5-37-96.75t-91-47.25z" />
<glyph unicode="&#xe674;" d="M384 32h-272q-46.5 0-79.25 32.75t-32.75 79.25q0 42 27.5 73.5t68.5 37v1.5q0 43.5 21.5 80.25t58.25 58.25 80.25 21.5q50 0 90.25-28t58.25-73q47-12 77.25-50.75t30.25-88.25q0-55.5-37-96.75t-91-47.25zM346 192h-58v80q0 6.5-4.75 11.25t-11.25 4.75h-32q-6.5 0-11.25-4.75t-4.75-11.25v-80h-58q-4 0-5.5-7.25t2.5-11.75l83.5-72.5q4-4.5 9.5-4.5t9.5 4.5l83.5 72.5q4 4.5 2.5 11.75t-5.5 7.25z" />
<glyph unicode="&#xe675;" d="M384 32h-272q-46.5 0-79.25 32.75t-32.75 79.25q0 42 27.5 73.5t68.5 37v1.5q0 43.5 21.5 80.25t58.25 58.25 80.25 21.5q50 0 90.25-28t58.25-73q47-12 77.25-50.75t30.25-88.25q0-55.5-37-96.75t-91-47.25zM349 211l-83.5 72.5q-4 4.5-9.5 4.5t-9.5-4.5l-83.5-72.5q-4-4.5-2.5-11.75t5.5-7.25h58v-80q0-6.5 4.75-11.25t11.25-4.75h32q6.5 0 11.25 4.75t4.75 11.25v80h58q4 0 5.5 7.25t-2.5 11.75z" />
<glyph unicode="&#xe676;" d="M384 32h-272q-46.5 0-79.25 32.75t-32.75 79.25q0 42 27.5 73.5t68.5 37v1.5q0 43.5 21.5 80.25t58.25 58.25 80.25 21.5q50 0 90.25-28t58.25-73q47-12 77.25-50.75t30.25-88.25q0-55.5-37-96.75t-91-47.25zM160 128l14.5 14.5q13-21 34.5-33.75t47-12.75q40 0 68 28l-22.5 23q-19-19-45.5-19-19 0-34.75 10.5t-23.25 27.5l26 26h-64v-64zM352 256l-14.5-14.5q-13 21.5-34.5 34t-47 12.5q-39.5 0-68-28l22.5-22.5q19 18.5 45.5 18.5 19 0 34.75-10.5t23.25-27.5l-26-26h64v64z" />
<glyph unicode="&#xe677;" d="M384 33v-1h-272q-46.5 0-79.25 32.75t-32.75 79.25q0 42 27.5 73.5t68.5 37v1.5q0 43.5 21.5 80.25t58.25 58.25 80.25 21.5q50 0 90.25-28t58.25-73q47-12 77.25-50.75t30.25-88.25q0-55.5-36.75-96.25t-91.25-46.75zM320 224q0 26.5-18.75 45.25t-45.25 18.75-45.25-18.75-18.75-45.25v-112q0-6.5 4.75-11.25t11.25-4.75h96q6.5 0 11.25 4.75t4.75 11.25v112zM224 192v32q0 13.5 9.5 22.75t22.75 9.25 22.5-9.25 9.25-22.75v-32h-64z" />
<glyph unicode="&#xe678;" d="M496 288h-144v-144q0-6.5-4.75-11.25t-11.25-4.75h-144v-144q0-6.5-4.75-11.25t-11.25-4.75h-128q-6.5 0-11.25 4.75t-4.75 11.25v448q0 6.5 4.75 11.25t11.25 4.75h448q6.5 0 11.25-4.75t4.75-11.25v-128q0-6.5-4.75-11.25t-11.25-4.75z" />
<glyph unicode="&#xe679;" d="M384 188.5v71l128 53v-177zM480 265l-64-26.5v-29l64-26.5v82zM321.5 340l53 127.5 125-125-128-53zM385.5 411.5l-26.5-64 20.5-20.5 64 26.5zM220.5 352l-53 128h177l-53-128h-71zM215 448l26.5-64h29l26.5 64h-82zM140 289.5l-128 53 125.5 125.5 53-128zM126.5 411.5l-58-58 64-26.5 20.5 20.5zM128 188.5l-128-53v177l128-53v-71zM32 265v-82l64 26.5v29zM190.5 108.5l-53-128-125.5 125 128 53zM126.5 36.5l26.5 64-20.5 20.5-64-26.5zM291.5 96l53-128h-177l53 128h71zM297 0l-26.5 64h-29l-26.5-64h82zM371.5 158.5l128-53-125-125-53 128zM385.5 36.5l58 58-64 26.5-20.5-20.5z" />
<glyph unicode="&#xe67a;" d="M384 188.5v71l128 53v-177zM480 265l-64-26.5v-29l64-26.5v82zM321.5 340l53 127.5 125.5-125-128-53zM385.5 411.5l-26.5-64 20.5-20.5 64 26.5zM220.5 352l-53 128h177l-53-128h-71zM140.5 289.5l-128 53 125 125.5 53-128zM126.5 411.5l-58-58 64-26.5 20.5 20.5zM128 188.5l-128-53v177l128-53v-71zM32 265v-82l64 26.5v29zM190.5 108.5l-53-128-125.5 125 128 53zM126.5 36.5l26.5 64-20.5 20.5-64-26.5zM291.5 96l53-128h-177l53 128h71zM297 0l-26.5 64h-29l-26.5-64h82zM371.5 158.5l128-53-125-125-53 128zM385.5 36.5l58 58-64 26.5-20.5-20.5z" />
<glyph unicode="&#xe67b;" d="M384 188.5v71l128 53v-177zM480 265l-64-26.5v-29l64-26.5v82zM321.5 340l53 127.5 125.5-125-128-53zM220.5 352l-53 128h177l-53-128h-71zM140 289.5l-128 53 125.5 125.5 53-128zM126.5 411.5l-58-58 64-26.5 20.5 20.5zM128 188.5l-128-53v177l128-53v-71zM32 265v-82l64 26.5v29zM190.5 108.5l-53-128-125.5 125 128.5 53zM126.5 36.5l26.5 64-20.5 20.5-64-26.5zM291.5 96l53-128h-177l53 128h71zM297 0l-26.5 64h-29l-26.5-64h82zM372 158.5l128-53-125.5-125-53 128zM385.5 36.5l58 58-64 26.5-20.5-20.5z" />
<glyph unicode="&#xe67c;" d="M384 188.5v71l128 53v-177zM321.5 340l53 127.5 125.5-125-128.5-53zM220.5 352l-53 128h177l-53-128h-71zM140.5 289.5l-128 53 125 125.5 53-128zM126.5 411.5l-58-58 64-26.5 20.5 20.5zM128 188.5l-128-53v177l128-53v-71zM32 265v-82l64 26.5v29zM190.5 108.5l-53-128-125.5 125 128 53zM126.5 36.5l26.5 64-20.5 20.5-64-26.5zM291.5 96l53-128h-177l53 128h71zM297 0l-26.5 64h-29l-26.5-64h82zM371.5 158.5l128-53-125-125-53 128zM385.5 36.5l58 58-64 26.5-20.5-20.5z" />
<glyph unicode="&#xe67d;" d="M384 188.5v71l128 53.5v-177.5zM321.5 340l53 128 125.5-125.5-128-53zM220.5 352l-53 128h177l-53-128h-71zM140 289.5l-128 53 125.5 125.5 53-128zM126.5 411.5l-58-58 64-26.5 20.5 20.5zM128 188.5l-128-53v177.5l128-53.5v-71zM32 265v-82l64 26.5v29zM190.5 108.5l-53-128-125.5 125 128 53.5zM126.5 36.5l26.5 64-20.5 20.5-64-26.5zM291.5 96l53-128h-177l53 128h71zM297 0l-26.5 64h-29l-26.5-64h82zM372 159l128-53.5-125.5-125-53 128z" />
<glyph unicode="&#xe67e;" d="M384 188.5v71l128 53.5v-177.5zM321.5 340l53 128 125.5-125.5-128-53zM220.5 352l-53 128h177l-53-128h-71zM140 289.5l-128 53 125.5 125.5 53-128zM126.5 411.5l-58-58 64-26.5 20.5 20.5zM128 188.5l-128-53v177.5l128-53.5v-71zM32 265v-82l64 26.5v29zM190.5 108.5l-53-128-125.5 125 128 53.5zM126.5 36.5l26.5 64-20.5 20.5-64-26.5zM291.5 96l53-128h-177l53 128h71zM371.5 159l128.5-53.5-125.5-125-53 128z" />
<glyph unicode="&#xe67f;" d="M384 188.5v71l128 53v-177zM321.5 340l53 127.5 125.5-125-128-53zM220.5 352l-53 128h177l-53-128h-71zM140.5 289.5l-128.5 53 125.5 125.5 53-128zM126.5 411.5l-57.5-58 63.5-26.5 20.5 20.5zM128 188.5l-128-53v177l128-53v-71zM32 265v-82l64 26.5v29zM190.5 108.5l-53-128-125.5 125 128.5 53zM291.5 96l53-128h-177l53 128h71zM372 158.5l128-53-125.5-125-53 128z" />
<glyph unicode="&#xe680;" d="M384 188.5v71l128 53v-177zM321.5 340l53 127.5 125-125-127.5-53.5zM220.5 352l-53 128h177l-53-128h-71zM140.5 289.5l-128 53 125 125 53-127.5zM126.5 411.5l-57.5-58 63.5-26.5 20.5 20.5zM128 188.5l-128-53v177l128-53v-71zM190.5 108l-53-127.5-125 125 128 53zM291.5 96l53-128h-177l53 128h71zM372 158.5l127.5-53-125-125-53 127.5z" />
<glyph unicode="&#xe681;" d="M384 188.5v71l128 53v-177zM321.5 340l53 127.5 125-125-127.5-53.5zM220.5 352l-53 128h177l-53-128h-71zM140.5 289.5l-128 53 125.5 125 53-127.5zM128 188.5l-128-53v177l128-53v-71zM191 108l-53-127.5-125.5 125 128 53zM291.5 96l53-128h-177l53 128h71zM372 158.5l127.5-53-125-125-53 127.5z" />
<glyph unicode="&#xe682;" d="M354.5 125.5q-7-7.5-16-12.5 13.5-23 13.5-49v0 0q0-40-28-68t-68-28-68 28-28 68q0 11 3.5 24l60.5-24q0-13 9.25-22.5t22.5-9.5 22.75 9.25 9.5 22.75q0 14-8.25 22.5t-26 19-29.75 22.5l-64 64q-15.5 15.5-23.75 31.75t-8.25 32.25q0 38.5 29 67 7 7 16 13-13 22-13 48 0 40 28 68t68 28 68-28 28-68q0-11-3.5-24l-60.5 24q0 13.5-9.5 22.75t-22.75 9.25-22.5-9.25-9.25-22.75q0-14 8.25-22.5t26.25-19.25 29.5-22.25l64-64q17.5-17.5 24.75-30.75t7.25-33.25q0-37-29.5-66.5zM310 217l-61.5 61.5q-10 10-23.75 10t-23.5-9.75-9.75-23.5 10-23.75l61.5-61.5q10-10 23.75-10t23.25 9.75 9.5 23.5-9.5 23.75z" />
<glyph unicode="&#xe683;" d="M368 64q-59.5 0-101.75 42.25t-42.25 101.75q0 33-23.5 56.5t-56.5 23.5-56.5-23.5-23.5-56.5 23.5-56.5 56.5-23.5q33.5 0 57 24 11-31.5 32-57-39-31-89-31-59.5 0-101.75 42.25t-42.25 101.75 42.25 101.75 101.75 42.25 101.75-42.25 42.25-101.75q0-33 23.5-56.5t56.5-23.5 56.5 23.5 23.5 56.5-23.5 56.5-56.5 23.5q-33.5 0-57-24-11 31.5-32 57 39 31 89 31 59.5 0 101.75-42.25t42.25-101.75-42.25-101.75-101.75-42.25z" />
<glyph unicode="&#xe684;" d="M416-32q-26.5 0-45.25 18.75t-18.75 45.25q0 17.5 8.75 32t23.25 23v201q0 40-28 68t-68 28l-96 32 96 64v-32q43.5 0 80.25-21.5t58.25-58.25 21.5-80.25v-201q14.5-8.5 23.25-23t8.75-32q0-26.5-18.75-45.25t-45.25-18.75zM415.75 64q-13.25 0-22.5-9.25t-9.25-22.5 9.25-22.75 22.5-9.5 22.75 9.5 9.5 22.75-9.5 22.5-22.75 9.25zM160 32q0-26.5-18.75-45.25t-45.25-18.75-45.25 18.75-18.75 45.25q0 17.5 8.75 32t23.25 23v274q-14.5 8.5-23.25 23t-8.75 32q0 26.5 18.75 45.25t45.25 18.75 45.25-18.75 18.75-45.25q0-17.5-8.75-32t-23.25-23v-274q14.5-8.5 23.25-23t8.75-32zM95.75 448q-13.25 0-22.5-9.25t-9.25-22.5 9.25-22.75 22.5-9.5 22.75 9.5 9.5 22.75-9.5 22.5-22.75 9.25zM95.75 64q-13.25 0-22.5-9.25t-9.25-22.5 9.25-22.75 22.5-9.5 22.75 9.5 9.5 22.75-9.5 22.5-22.75 9.25z" />
<glyph unicode="&#xe685;" d="M475.5 400l32-32q4.5-4.5 4.5-10.75t-4.5-10.75l-21.5-22q-4.5-4.5-10.75-4.5t-10.75 4.5l-32.5 32.5-32.5-33q-4.5-4.5-10.75-4.5t-10.75 4.5l-22 22q-4.5 4.5-4.5 10.75t4.5 10.75l33 32.5-33 33q-4.5 4-4.5 10.5t4.5 11l22 21.5q4.5 4.5 10.75 4.5t10.75-4.5l32.5-32.5 32.5 32q4.5 4.5 10.75 4.5t10.75-4.5l21.5-21.5q4.5-4.5 4.5-10.75t-4.5-10.75zM99.5 84.5q28.5-19.5 28.5-52.5 0-26.5-18.75-45.25t-45.25-18.75-45.25 18.75-18.75 45.25q0 17.5 8.75 32t23.25 23v361q0 13.5 9.25 22.75t22.75 9.25 22.75-9.25 9.25-22.75v-185q39 61 97 100.75t127 52.25v-64q-87-19.5-147.25-91.5t-73.25-176zM64.25 64q-13.25 0-22.75-9.25t-9.5-22.5 9.25-22.75 22.75-9.5 22.75 9.5 9.25 22.75-9.25 22.5-22.5 9.25z" />
<glyph unicode="&#xe686;" d="M496 288h-128q-6.5 0-11.25 4.75t-4.75 11.25v112q0 26.5 23.5 45.25t56.5 18.75 56.5-18.75 23.5-45.25v-112q0-6.5-4.75-11.25t-11.25-4.75zM432 448q-20 0-34-9.25t-14-22.75v-32h96v32q0 13.5-14 22.75t-34 9.25zM99.5 84.5q28.5-19.5 28.5-52.5 0-26.5-18.75-45.25t-45.25-18.75-45.25 18.75-18.75 45.25q0 17.5 8.75 32t23.25 23v361q0 13 9.25 22.5t22.75 9.5 22.75-9.5 9.25-22.5v-185q39 61 97 100.75t127 52.25v-64q-87-19.5-147.25-91.5t-73.25-176zM64.25 64q-13.25 0-22.75-9.25t-9.5-22.5 9.25-22.75 22.75-9.5 22.75 9.5 9.25 22.75-9.25 22.5-22.5 9.25z" />
<glyph unicode="&#xe687;" d="M480 192h-67q-11.5-55-55.5-91.5t-101.5-36.5-101.5 36.5-55.5 91.5h-67q-13.5 0-22.75 9.5t-9.25 22.75 9.25 22.5 22.75 9.25h67q11.5 55.5 55.5 91.75t101.5 36.25 101.5-36.25 55.5-91.75h67q13.5 0 22.75-9.25t9.25-22.5-9.25-22.75-22.75-9.5zM256 320q-40 0-68-28t-28-68 28-68 68-28 68 28 28 68-28 68-68 28z" />
<glyph unicode="&#xe688;" d="M447.5-32h-383.5q-13.5 0-22.75 9.25t-9.25 22.75v447.5q0 13.5 9.25 22.75t22.75 9.25h224v-176q0-6.5 4.5-11.25t11.5-4.75h175.5v-287.5q0-13.5-9.25-22.75t-22.75-9.25zM218 188q6 6 6 15t-6 15.25-14.5 6.25-14.5-6.5l-87.5-74.5q-6-6.5-6-15.25t6-15.25l87.5-74.5q6-6.5 14.5-6.5t14.5 6.25 6 15.25-6 15l-73 59.5zM410 143.5l-87 74.5q-6 6.5-14.5 6.5t-14.5-6.25-6-15.25 6-15l72.5-60-72.5-59.5q-6-6-6-15t6-15.25 14.5-6.25 14.5 6.5l87 74.5q6.5 6.5 6.5 15.25t-6.5 15.25zM320 480q13 0 22-9l128-128.5q9.5-9.5 9.5-23h-159.5v160.5z" />
<glyph unicode="&#xe689;" d="M256 224q-69.5 0-128.5 8.5t-93.25 23.25-34.25 32.25v64q0 4 3 9.5 31-18.5 101.25-30t151.75-11.5 151.75 11.5 101.25 30q3-5.5 3-9.5v-64q0-17.5-34.25-32.25t-93.25-23.25-128.5-8.5zM256 352q-69.5 0-128.5 8.5t-93.25 23.25-34.25 32.25 34.25 32.25 93.25 23.25 128.5 8.5 128.5-8.5 93.25-23.25 34.25-32.25-34.25-32.25-93.25-23.25-128.5-8.5zM232 184.5q10 8 23.75 8t23.75-8l94.5-75q9.5-8 9.5-19t-9.75-18.75-23.5-7.75-23.75 8l-38.5 30.5v-102.5q0-13-9.25-22.5t-22.5-9.5-22.75 9.5-9.5 22.5v103l-39-31q-10-8-23.75-8t-23.5 7.75-9.75 18.75 9.5 19z" />
<glyph unicode="&#xe68a;" d="M256 224q-69.5 0-128.5 8.5t-93.25 23.25-34.25 32.25v64q0 4 3 9 31-18 101.25-29.5t151.75-11.5 151.75 11.5 101.25 29.5q3-5 3-9v-64q0-17.5-34.25-32.25t-93.25-23.25-128.5-8.5zM256 352q-69.5 0-128.5 8.5t-93.25 23.25-34.25 32.25 34.25 32.25 93.25 23.25 128.5 8.5 128.5-8.5 93.25-23.25 34.25-32.25-34.25-32.25-93.25-23.25-128.5-8.5zM185 88.5l39-31v102.5q0 13 9.25 22.5t22.75 9.5 22.75-9.5 9.25-22.5v-102l38.5 30.5q10 8 23.75 8t23.5-8 9.75-19-9.5-18.5l-94.5-75q-10-8-23.75-8t-23.75 8l-94.5 75q-9.5 7.5-9.5 18.5t9.75 19 23.5 8 23.75-8z" />
<glyph unicode="&#xe68b;" d="M480-32h-448q-13 0-22.5 9.5t-9.5 22.5v448q0 13.5 9.5 22.75t22.5 9.25h448q13.5 0 22.75-9.25t9.25-22.75v-448q0-13-9.25-22.5t-22.75-9.5zM480 96h-56q-3.5 0-5.75 2.25t-2.25 5.75v16q0 3.5 2.25 5.75t5.75 2.25h56v192h-56q-3.5 0-5.75 2.25t-2.25 5.75v16q0 3.5 2.25 5.75t5.75 2.25h56v96h-96v-56q0-3.5-2.25-5.75t-5.75-2.25h-16q-3.5 0-5.75 2.25t-2.25 5.75v56h-192v-56q0-3.5-2.25-5.75t-5.75-2.25h-16q-3.5 0-5.75 2.25t-2.25 5.75v56h-96v-96h56q3.5 0 5.75-2.25t2.25-5.75v-16q0-3.5-2.25-5.75t-5.75-2.25h-56v-192h56q3.5 0 5.75-2.25t2.25-5.75v-16q0-3.5-2.25-5.75t-5.75-2.25h-56v-96h96v56q0 3.5 2.25 5.75t5.75 2.25h16q3.5 0 5.75-2.25t2.25-5.75v-56h192v56q0 3.5 2.25 5.75t5.75 2.25h16q3.5 0 5.75-2.25t2.25-5.75v-56h96v96zM376 96h-48q-3.5 0-5.75 2.25t-2.25 5.75v16q0 3.5 2.25 5.75t5.75 2.25h24v24q0 3.5 2.25 5.75t5.75 2.25h16q3.5 0 5.75-2.25t2.25-5.75v-48q0-3.5-2.25-5.75t-5.75-2.25zM376 192h-16q-3.5 0-5.75 2.25t-2.25 5.75v48q0 3.5 2.25 5.75t5.75 2.25h16q3.5 0 5.75-2.25t2.25-5.75v-48q0-3.5-2.25-5.75t-5.75-2.25zM376 288h-16q-3.5 0-5.75 2.25t-2.25 5.75v24h-24q-3.5 0-5.75 2.25t-2.25 5.75v16q0 3.5 2.25 5.75t5.75 2.25h48q3.5 0 5.75-2.25t2.25-5.75v-48q0-3.5-2.25-5.75t-5.75-2.25zM280 96h-48q-3.5 0-5.75 2.25t-2.25 5.75v16q0 3.5 2.25 5.75t5.75 2.25h48q3.5 0 5.75-2.25t2.25-5.75v-16q0-3.5-2.25-5.75t-5.75-2.25zM280 320h-48q-3.5 0-5.75 2.25t-2.25 5.75v16q0 3.5 2.25 5.75t5.75 2.25h48q3.5 0 5.75-2.25t2.25-5.75v-16q0-3.5-2.25-5.75t-5.75-2.25zM184 96h-48q-3.5 0-5.75 2.25t-2.25 5.75v48q0 3.5 2.25 5.75t5.75 2.25h16q3.5 0 5.75-2.25t2.25-5.75v-24h24q3.5 0 5.75-2.25t2.25-5.75v-16q0-3.5-2.25-5.75t-5.75-2.25zM184 320h-24v-24q0-3.5-2.25-5.75t-5.75-2.25h-16q-3.5 0-5.75 2.25t-2.25 5.75v48q0 3.5 2.25 5.75t5.75 2.25h48q3.5 0 5.75-2.25t2.25-5.75v-16q0-3.5-2.25-5.75t-5.75-2.25zM136 256h16q3.5 0 5.75-2.25t2.25-5.75v-48q0-3.5-2.25-5.75t-5.75-2.25h-16q-3.5 0-5.75 2.25t-2.25 5.75v48q0 3.5 2.25 5.75t5.75 2.25z" />
<glyph unicode="&#xe68c;" d="M480 32l-288 64q-22 4-32 16l-48 80-16-128q0-13-9.25-22.5t-22.75-9.5-22.75 9.25-9.25 22.75l27 188.5q7 37.5 21 51.5 4.5 4 26.25 23t26.25 23.5l59.5 49.5v48q0 12.5 9 22.25t23 9.75q14.5 0 23.25-9.5t8.75-22.5v-64q-0.5-2-3.25-7.75t-7-13.5-5.75-10.75l-58.5-47.5q-1-1.5 1.75-5.5t5.75-7.5l3-3.5 64-80 67.5 63.5q3 5.5 5 8 9.5 9 22.25 9t21.75-9l98.5-98q9-9.5 9-22.25t-9.25-22-22-9.25-21.75 9l-75 75-80-68 208-48q13.5 0 22.75-9.25t9.25-22.5-9.25-22.75-22.75-9.5zM64 352q-26.5 0-45.25 18.75t-18.75 45.25 18.75 45.25 45.25 18.75 45.25-18.75 18.75-45.25-18.75-45.25-45.25-18.75zM144 32h96q6.5 0 11.25-4.75t4.75-11.25-4.75-11.25-11.25-4.75h-96q-6.5 0-11.25 4.75t-4.75 11.25 4.75 11.25 11.25 4.75zM304 0h160q6.5 0 11.25-4.75t4.75-11.25-4.75-11.25-11.25-4.75h-160q-6.5 0-11.25 4.75t-4.75 11.25 4.75 11.25 11.25 4.75z" />
<glyph unicode="&#xe68d;" d="M160 224q0 40 28 68t68 28 68-28 28-68-28-68-68-28-68 28-28 68zM512 256v-224q0-26.5-18.75-45.25t-45.25-18.75h-384q-26.5 0-45.25 18.75t-18.75 45.25v384q0 26.5 18.75 45.25t45.25 18.75h384q26.5 0 45.25-18.75t18.75-45.25v-96h-128q-22.5 29.5-56 46.75t-72 17.25-72-17.25-56-46.75h-128v-64h99q-3-16-3-32 0-43.5 21.5-80.25t58.25-58.25 80.25-21.5 80.25 21.5 58.25 58.25 21.5 80.25q0 16-3 32h99z" />
<glyph unicode="&#xe68e;" d="M256-32q-52 0-99.5 20.25t-81.75 54.5-54.5 81.75-20.25 99.5 20.25 99.5 54.5 81.75 81.75 54.5 99.5 20.25 99.5-20.25 81.75-54.5 54.5-81.75 20.25-99.5-20.25-99.5-54.5-81.75-81.75-54.5-99.5-20.25zM384 320q0 13-9.25 22.5t-22.75 9.5h-192q-13 0-22.5-9.5t-9.5-22.5v-32h57q29 32 71 32t71-32h57v32zM192 224q0-26.5 18.75-45.25t45.25-18.75 45.25 18.75 18.75 45.25-18.75 45.25-45.25 18.75-45.25-18.75-18.75-45.25zM384 256h-38q6-16.5 6-32 0-40-28-68t-68-28-68 28-28 68q0 15.5 6 32h-38v-128q0-13.5 9.25-22.75t22.75-9.25h192q13.5 0 22.75 9.25t9.25 22.75v128z" />
<glyph unicode="&#xe68f;" d="M492.5 98.5l-108.5 92.5v-63q0-26.5-18.75-45.25t-45.25-18.75h-256q-26.5 0-45.25 18.75t-18.75 45.25v192q0 26.5 18.75 45.25t45.25 18.75h256q26.5 0 45.25-18.75t18.75-45.25v-63l108.5 92.5q8 6.5 19.5-3.5v-244q-11.5-10-19.5-3.5zM288.25 320q-13.25 0-22.75-9.25t-9.5-22.5 9.5-22.75 22.75-9.5 22.5 9.5 9.25 22.75-9.25 22.5-22.5 9.25z" />
<glyph unicode="&#xe690;" d="M448 32h-384q-26.5 0-45.25 18.75t-18.75 45.25v256q0 26.5 18.75 45.25t45.25 18.75h384q26.5 0 45.25-18.75t18.75-45.25v-256q0-26.5-18.75-45.25t-45.25-18.75zM127.75 288q13.25 0 22.75-9.5t9.5-22.5h64q0 40-28 68t-68 28-68-28-28-68v-64q0-40 28-68t68-28 68 28 28 68h-64q0-13.5-9.5-22.75t-22.75-9.25-22.5 9.25-9.25 22.75v64q0 13 9.25 22.5t22.5 9.5zM383.75 288q13.25 0 22.75-9.5t9.5-22.5h64q0 40-28 68t-68 28-68-28-28-68v-64q0-40 28-68t68-28 68 28 28 68h-64q0-13.5-9.5-22.75t-22.75-9.25-22.5 9.25-9.25 22.75v64q0 13 9.25 22.5t22.5 9.5z" />
<glyph unicode="&#xe691;" d="M466.5 35l-48.5 67.5q27.5 10.5 44.75 34.75t17.25 54.75h-64q0-13.5-9.25-22.75t-22.75-9.25q-3.5 0-7.5 1l-24.5 34v61q0 13 9.5 22.5t22.5 9.5 22.5-9.5 9.5-22.5h64q0 39.5-28 67.75t-68 28.25q-33 0-58.75-20.25t-33.75-51.75l-97 136h253.5q26.5 0 45.25-18.75t18.75-45.25v-256q0-21.5-12.75-38.25t-32.75-22.75zM438.5-22.5q-9.5-9.5-23-9.5t-22.5 9.5l-320 447.5q-9.5 9.5-9.5 23t9.5 23 23 9.5 22.5-9.5l320-448q9.5-9.5 9.5-22.75t-9.5-22.75zM128.25 160q-13.25 0-22.75 9.25t-9.5 22.75v64q0 13 9.5 22.5t22.5 9.5q3.5 0 7.5-1l68-95h-43.5q0-13.5-9.25-22.75t-22.5-9.25zM32 256v-64q0-40 28-68t68-28q33 0 58.75 20.25t33.75 51.75l97-136h-253.5q-26.5 0-45.25 18.75t-18.75 45.25v256q0 21.5 12.75 38.25t32.75 22.75l48.5-67.5q-27.5-10.5-44.75-35t-17.25-54.5z" />
<glyph unicode="&#xe692;" d="M496 384h-96q-1 0 19-20.5t40.5-40.5 20.5-19v-131q0-5.5-3.75-9.25t-9.25-3.75h29q6.5 0 11.25-4.75t4.75-11.25-4.75-11.25-11.25-4.75h-80q0-13-9.25-22.5t-22.75-9.5h-224v-32h16q6.5 0 11.25-4.75t4.75-11.25v-16h48q6.5 0 11.25-4.75t4.75-11.25-4.75-11.25-11.25-4.75h-48v-16q0-6.5-4.75-11.25t-11.25-4.75h-96q-6.5 0-11.25 4.75t-4.75 11.25v16h-48q-6.5 0-11.25 4.75t-4.75 11.25 4.75 11.25 11.25 4.75h48v16q0 6.5 4.75 11.25t11.25 4.75h16v384q0 13.5 9.25 22.75t22.5 9.25 22.75-9.25 9.5-22.75h224q13.5 0 22.75-9.25t9.25-22.75h80q6.5 0 11.25-4.75t4.75-11.25-4.75-11.25-11.25-4.75zM301 384h-141v-224h141q-5.5 0-9.25 3.75t-3.75 9.25v198q0 5.5 3.75 9.25t9.25 3.75zM384 352h-64v-160h128v96h-64v64z" />
<glyph unicode="&#xe693;" d="M439.75 168.75q-8.75-8.75-21-8.75t-21.25 9l-77 77.5v-86.5h-128v86.5l-77.5-77.5q-9-9-21.25-9t-21 8.75-8.75 21.25 8.5 21l72 77q32 32 112 32t112-32l71.5-77q8.5-8.5 8.5-21t-8.75-21.25zM256.25 352q-26.75 0-45.5 18.75t-18.75 45.25 18.75 45.25 45.5 18.75 45.5-18.75 18.75-45.25-18.75-45.25-45.5-18.75zM105 87.5q1.5 1 6.5 4l59 50 62.5-45-56-37 38-38.5q9-9 9-21.75t-9-22-22-9.25-22 9l-66 66q-9 9.5-9 22.25t9 22.25zM297.5 21l38 38.5-56 37 62.5 45 59-50q5-3 6.5-4 9-9.5 9-22.25t-9-22.25l-66-66q-9-9-22-9t-22 9-9 22 9 22z" />
<glyph unicode="&#xe694;" d="M448 384q9.5 1 17.75 1t21.25-0.5 25-0.5q0-8-3.25-14.75t-9.75-11.25-12.25-7.5-15.5-5.5-14-3.25-13.25-2.25q-3.5-13-15.75-41.25t-12.25-42.25q0-8.5 6.5-19t16-21.75 19-23.5 16-29 6.5-34.75q0-47-29.25-83.75t-80.25-56.5-114.5-19.75q-39 0-75.75 11.25t-69.5 35-57.5 57.25-39 81-14.25 103.5q0-21.5 19.75-36.25t51.5-21.25 72.75-6.5q23.5 0 58 10.75t60.25 26 25.75 27.25q0 10.5-10 24.25t-22 25.75-22 29-10 33q0 46.5 32.75 79.25t79.25 32.75q32 0 58.75-17t40.75-44.5q19 4 41 12.75t35.5 16.75q0-7.5-3.5-15t-8-12.75-12.75-11.5-13.25-9.25-14.5-8.5-12-7zM368 416q-6.5 0-11.25-9.5t-4.75-22.75 4.75-22.5 11.25-9.25 11.25 9.25 4.75 22.5-4.75 22.75-11.25 9.5z" />
<glyph unicode="&#xe695;" d="M448-32h-192q-10.5 0-25.75 17.25t-26.75 40.5-11.5 38.75q-0.5 12-8.25 40.75t-15.75 65.75-8 69v16q0 13.5 9.25 22.75t22.75 9.25q11 0 19.5-6.75t11-16.75q1.5 14 1.5 23.5 0 29 1 56.25t4 61 10 54.25 17 20.5q22.5 0 27.25-22.75t4.75-105.25q0-18.5 3.25-32t8-19.5 9.5-9.25 7.75-3.25h3.5q0 13.5 9.25 22.75t22.75 9.25q32 0 32-64 0 13.5 9.25 22.75t22.75 9.25 22.75-9.25 9.25-22.75v-32q0 13.5 9.25 22.75t22.75 9.25 22.75-9.25 9.25-22.75v-144q0-23-3.75-41.5t-9-29.75-12.5-19.75-13.5-12.25-12.75-6-8.75-2.5-3.75-0.25zM427.5 322q-4.5-4.5-11.5 2v60h-80q-6.5 0-11.25 4.75t-4.75 11.25 4.75 11.25 11.25 4.75h80v60.5q7 6 11.5 2l81.5-72.5q3-2.5 3-6t-3-6zM176 384h-80v-60q-7-6.5-11.5-2l-82 72q-2.5 2.5-2.5 6t2.5 6l82 72.5q4.5 4 11.5-2v-60.5h80q6.5 0 11.25-4.75t4.75-11.25-4.75-11.25-11.25-4.75z" />
<glyph unicode="&#xe696;" d="M448-32h-192q-10.5 0-25.75 17.25t-26.75 40.5-12 38.75q0 12-8 40.75t-15.75 65.75-7.75 69v16q0 13.5 9.25 22.75t22.75 9.25q11 0 19.5-6.5t11-17q1.5 14 1.5 23.5 0 29.5 1 56.5t4 60.75 9.75 54.25 17.25 20.5q22.5 0 27.25-22.5t4.75-105.5q0-18.5 3.25-32t8-19.5 9.5-9 7.75-3.5h3.5q0 13.5 9.25 22.75t22.75 9.25q32 0 32-64 0 13.5 9.25 22.75t22.5 9.25 22.75-9.25 9.5-22.75v-32q0 13.5 9.25 22.75t22.75 9.25 22.75-9.25 9.25-22.75v-144q0-23-3.5-41.5t-9.25-29.75-12.5-19.75-13.5-12.25-12.5-6-9.25-2.75h-3.5zM96 384v-144q0-6.5-4.75-11.25t-11.5-4.75-11.25 4.75-4.5 11.25v144h-60q-6.5 7-2.5 12l72.5 81.5q2.5 2.5 6 2.5t6-2.5l72-81.5q4.5-5-2-12h-60z" />
<glyph unicode="&#xe697;" d="M448-32h-192q-10.5 0-25.75 17.25t-26.75 40.5-12 38.75q0 12-8 40.75t-15.75 65.75-7.75 69v16q0 13.5 9.25 22.75t22.75 9.25q11 0 19.5-6.5t11-17q1.5 14 1.5 23.5 0 29.5 1 56.5t4 61 9.75 54.25 17.25 20.25q22.5 0 27.25-22.5t4.75-105.5q0-18.5 3.25-32t8-19.5 9.5-9 7.75-3.5h3.5q0 13.5 9.25 22.75t22.75 9.25q32 0 32-64 0 13.5 9.25 22.75t22.5 9.25 22.75-9.25 9.5-22.75v-32q0 13.5 9.25 22.75t22.5 9.25 22.75-9.25 9.5-22.75v-144q0-23-3.75-41.5t-9-29.75-12.5-19.75-13.5-12.25-12.75-6-8.75-2.5-3.75-0.25zM86 227q-2.5-3-6-3t-6 3l-72.5 81.5q-4 4.5 2.5 11.5h60v144q0 7 4.5 11.5t11.25 4.5 11.5-4.5 4.75-11.5v-144h60q6.5-7 2-11.5z" />
<glyph unicode="&#xe698;" d="M448-32h-192q-15 0-30.5 25.5t-24.5 55.5-9 47v128q0 13.5 9.25 22.75t22.75 9.25q9.5 0 18-5.5l-18 194.5q-1 14 7.5 24.25t21.5 11 23-8.5 10.5-23.25l17.5-160.5q2.5-5 7.25-10.5t8.75-5.5l17 176.5q1 14 10.75 23.25t22.75 8.5 21.75-11 7.75-24.25q-16-93-16-189 0 13.5 9.25 22.75t22.5 9.25 22.75-9.25 9.5-22.75v-32q0 13.5 9.25 22.75t22.75 9.25 22.75-9.25 9.25-22.75v-112q0-31.5-6.5-57.75t-16-41.5-19-26-16-14.75zM86 227q-2.5-3-6-3t-6 3l-72.5 81.5q-4 4.5 2.5 11.5h60v144q0 7 4.5 11.5t11.25 4.5 11.5-4.5 4.75-11.5v-144h60.5q6-7 1.5-11.5z" />
<glyph unicode="&#xe699;" d="M448-32h-192q-15 0-30.5 25.5t-24.5 55.5-9 47v128q0 13.5 9.25 22.75t22.75 9.25q9.5 0 18-5.5l-18 194.5q-1 14 7.5 24.25t21.5 11 23-8.5 10.5-23.25l17.5-160.5q2.5-5 7.25-10.5t8.75-5.5l17 176.5q1 14 10.75 23.25t22.75 8.5 21.75-11 7.75-24.25q-16-93-16-189 0 13.5 9.25 22.75t22.5 9.25 22.75-9.25 9.5-22.75v-32q0 13.5 9.25 22.75t22.75 9.25 22.75-9.25 9.25-22.75v-112q0-88-48.5-132.5-8.5-8-15.5-11.5zM96 384.5v-144.5q0-6.5-4.75-11.25t-11.5-4.75-11.25 4.75-4.5 11.25v144.5h-60q-6.5 6.5-2.5 11.5l72.5 81.5q2.5 2.5 6 2.5t6-2.5l72-81.5q4.5-5-2-11.5h-60z" />
<glyph unicode="&#xe69a;" d="M416-32h-192q-10.5 0-25.75 17.25t-26.75 40.5-11.5 38.75q-0.5 12-8.25 40.75t-15.75 65.75-8 69v16q0 13.5 9.25 22.75t22.75 9.25q11 0 19.5-6.75t11-16.75q1.5 14 1.5 23.5 0 29 1 56.25t4 61 10 54.25 17 20.5q22.5 0 27.25-22.75t4.75-105.25q0-19 3.25-32.5t8-19.25 9.5-9 7.75-3.25h3.5q0 13.5 9.25 22.75t22.75 9.25q32 0 32-64 0 13.5 9.25 22.75t22.5 9.25 22.75-9.25 9.5-22.75v-32q0 13.5 9.25 22.75t22.5 9.25 22.75-9.25 9.5-22.75v-144q0-23-3.75-41.5t-9-29.75-12.5-19.75-13.5-12.25-12.75-6-8.75-2.5-3.75-0.25zM379 336q5 22 5 43.5 0 45.5-19 85l28.5 15.5q22.5-46.5 22.5-100.5 0-30.5-7.5-59.5zM319 369q1 8.5 1 15 0 27-9.5 50l26.5 15q15-32 15-69.5 0-13.5-2-27zM129 369l-31-16.5q-2 13.5-2 27 0 37.5 15 69.5l26.5-15q-9.5-23-9.5-50 0-6.5 1-15zM69 336l-29.5-16q-7.5 29-7.5 59.5 0 54 23 100.5l28-15.5q-19-39.5-19-85 0-21.5 5-43.5z" />
<glyph unicode="&#xe69b;" d="M384 224q-35.5 0-72.5-7-13.5 38.5-30.5 72 46.5 22 82.75 55.5t57.25 75q42.5-36 66.75-87t24.25-108.5q0-9.5-1-22.5-61 22.5-127 22.5zM265.5 317q-53.5 92.5-127.5 134 55.5 29 118 29 75.5 0 139-41-19-39-52.25-70.5t-77.25-51.5zM236.5 306q-52.5-18-108.5-18-58 0-113.5 20 26.5 76 91.5 123.5 76-34 130.5-125.5zM128 256q65 0 124 21.5 16-32 29-68-71-20.5-123.75-66t-76.75-105.5q-38 35.5-59.25 83.75t-21.25 102.25q0 27 5.5 53.5 60.5-21.5 122.5-21.5zM290.5 179q28-95 29-202.5-32-8.5-63.5-8.5-82 0-149 48.5 19 57 67.75 100t115.75 62.5zM321.5 186q31.5 6 62.5 6 63 0 122-23-13.5-62-54.75-110.5t-99.75-72q-2.5 106.5-30 199.5z" />
<glyph unicode="&#xe69c;" d="M256-32q-52 0-99.5 20.25t-81.75 54.5-54.5 81.75-20.25 99.5 20.25 99.5 54.5 81.75 81.75 54.5 99.5 20.25 99.5-20.25 81.75-54.5 54.5-81.75 20.25-99.5-20.25-99.5-54.5-81.75-81.75-54.5-99.5-20.25zM379 322q5 5 5 12.5t-5.25 12.5-12.5 5-12.25-5l-34-34-34 34q-5 5-12.25 5t-12.5-5-5.25-12.5 5-12.5l34-34-34-34q-5-5-5-12.5t5.25-12.5 12.5-5 12.25 5l34 34 34-34q5-5 12.25-5t12.5 5 5.25 12.5-5 12.5l-34 34zM384 160h-64l-32-32q-32 8.5-75.75 52.5t-52.25 75.5l32 32v64q-12 17-26 26.5t-21 2.5l-33.5-33.5q-27.5-27.5-8-86.5t75-114.5 114.5-75 86.5 8l33.5 33.5q7 7-2.25 23t-26.75 24z" />
<glyph unicode="&#xe69d;" d="M256-32q-52 0-99.5 20.25t-81.75 54.5-54.5 81.75-20.25 99.5 20.25 99.5 54.5 81.75 81.75 54.5 99.5 20.25 99.5-20.25 81.75-54.5 54.5-81.75 20.25-99.5-20.25-99.5-54.5-81.75-81.75-54.5-99.5-20.25zM379 322q5 5 5 12.5t-5.25 12.5-12.5 5-12.25-5l-66-66v55q0 6.5-4.75 11.25t-11.25 4.75-11.25-4.75-4.75-11.25v-96q0-6.5 4.75-11.25t11.25-4.75h96q6.5 0 11.25 4.75t4.75 11.25-4.75 11.25-11.25 4.75h-55zM384 160h-64l-32-32q-32 8.5-75.75 52.5t-52.25 75.5l32 32v64q-12 17-26 26.5t-21 2.5l-33.5-33.5q-27.5-27.5-8-86.5t75-114.5 114.5-75 86.5 8l33.5 33.5q7 7-2.25 23t-26.75 24z" />
<glyph unicode="&#xe69e;" d="M256-32q-52 0-99.5 20.25t-81.75 54.5-54.5 81.75-20.25 99.5 20.25 99.5 54.5 81.75 81.75 54.5 99.5 20.25 99.5-20.25 81.75-54.5 54.5-81.75 20.25-99.5-20.25-99.5-54.5-81.75-81.75-54.5-99.5-20.25zM384 336q0 6.5-4.75 11.25t-11.25 4.75h-96q-6.5 0-11.25-4.75t-4.75-11.25 4.75-11.25 11.25-4.75h55l-66-66q-5-5-5-12.5t5.25-12.5 12.5-5 12.25 5l66 66v-55q0-6.5 4.75-11.25t11.25-4.75 11.25 4.75 4.75 11.25v96zM384 160h-64l-32-32q-32 8.5-75.75 52.5t-52.25 75.5l32 32v64q-12 17-26 26.5t-21 2.5l-33.5-33.5q-27.5-27.5-8-86.5t75-114.5 114.5-75 86.5 8l33.5 33.5q7 7-2.25 23t-26.75 24z" />
<glyph unicode="&#xe69f;" d="M256-32q-69.5 0-128.5 34.25t-93.25 93.25-34.25 128.5q0 52 20.25 99.5t54.5 81.75 81.75 54.5 99.5 20.25 99.5-20.25 81.75-54.5 54.5-81.75 20.25-99.5q0-69.5-34.25-128.5t-93.25-93.25-128.5-34.25zM176 64h160q6.5 0 11.25 4.75t4.75 11.25-4.75 11.25-11.25 4.75h-160q-6.5 0-11.25-4.75t-4.75-11.25 4.75-11.25 11.25-4.75zM399 288h-78.5v64q0 13.5-9.5 22.75t-22.5 9.25h-64.5q-13 0-22.5-9.25t-9.5-22.75v-64h-79q-11.5 0-15.5-12.5t3-19.5l140-121q6.5-7 15.75-7t15.75 7l139.5 121q7 7 3 19.5t-15.5 12.5z" />
<glyph unicode="&#xe6a0;" d="M256-32q-52 0-99.5 20.25t-81.75 54.5-54.5 81.75-20.25 99.5 20.25 99.5 54.5 81.75 81.75 54.5 99.5 20.25 99.5-20.25 81.75-54.5 54.5-81.75 20.25-99.5-20.25-99.5-54.5-81.75-81.75-54.5-99.5-20.25zM176 64h160q6.5 0 11.25 4.75t4.75 11.25-4.75 11.25-11.25 4.75h-160q-6.5 0-11.25-4.75t-4.75-11.25 4.75-11.25 11.25-4.75zM411.5 256l-139.5 121q-6.5 7-15.75 7t-15.75-7l-140-121q-7-7-3-19.5t15.5-12.5h79v-64q0-13.5 9.5-22.75t22.5-9.25h64.5q13 0 22.5 9.25t9.5 22.75v64h78.5q11.5 0 15.5 12.5t-3 19.5z" />
<glyph unicode="&#xe6a1;" d="M512 160q0-47-34.5-83.75t-92.75-56.5-128.75-19.75-128.75 19.75-92.75 56.5-34.5 83.75q0 13.5 9.25 22.75t22.5 9.25 22.75-9.25 9.5-22.75q0-23.5 25.5-45.5t70.5-36.25 96-14.25q51.5 0 96.25 13.75t70.25 35.75 25.5 46.5q0 13.5 9.25 22.75t22.5 9.25 22.75-9.25 9.5-22.75zM384 288q-26.5 0-45.25 23.5t-18.75 56.5 18.75 56.5 45.25 23.5 45.25-23.5 18.75-56.5-18.75-56.5-45.25-23.5zM128 288q-26.5 0-45.25 23.5t-18.75 56.5 18.75 56.5 45.25 23.5 45.25-23.5 18.75-56.5-18.75-56.5-45.25-23.5z" />
<glyph unicode="&#xe6a2;" d="M479.75 0q-13.25 0-22.5 9.5t-9.25 22.5q0 24.5-25.5 46.5t-70.25 35.75-96.25 13.75q-51 0-96-14.25t-70.5-36.25-25.5-45.5q0-13-9.5-22.5t-22.75-9.5-22.5 9.5-9.25 22.5q0 47 34.5 83.75t92.75 56.5 128.75 19.75 128.75-19.75 92.75-56.5 34.5-83.75q0-13-9.5-22.5t-22.75-9.5zM384 288q-26.5 0-45.25 23.5t-18.75 56.5q0 32.5 9.75 56.25t22.25 23.75q17.5 0 40.25-14.5t39.25-37.5 16.5-44q0-31.5-18-47.75t-46-16.25zM128 288q-28 0-46 16.25t-18 47.75q0 21 16.5 44t39.25 37.5 40.25 14.5q12.5 0 22.25-23.75t9.75-56.25q0-33-18.75-56.5t-45.25-23.5z" />
<glyph unicode="&#xe6a3;" d="M512 192q0-36.5-17.75-70.75t-49.75-61.25-81.25-43.5-107.25-16.5-107.25 16.5-81.25 43.5-49.75 61.5-17.75 70.5q0 13.5 9.25 22.75t22.75 9.25h448q13.5 0 22.75-9.25t9.25-22.75zM256 64q37 0 69 8.5t54.25 22.75 37.5 30.5 23.75 34.25h-368.5q8.5-17.5 23.75-34t37.5-30.75 54.25-22.75 68.5-8.5zM384 288q-26.5 0-45.25 23.5t-18.75 56.5 18.75 56.5 45.25 23.5 45.25-23.5 18.75-56.5-18.75-56.5-45.25-23.5zM128 288q-26.5 0-45.25 23.5t-18.75 56.5 18.75 56.5 45.25 23.5 45.25-23.5 18.75-56.5-18.75-56.5-45.25-23.5z" />
<glyph unicode="&#xe6a4;" d="M512 192q0-36.5-17.75-70.75t-49.75-61.25-81.25-43.5-107.25-16.5-107.25 16.5-81.25 43.5-49.75 61.5-17.75 70.5q0 13.5 9.5 22.75t22.5 9.25h448q13 0 22.5-9.25t9.5-22.75zM72 160q8.5-17.5 23.75-34t37.5-30.75 54.25-22.75 68.5-8.5q37 0 69 8.5t54.25 22.75 37.5 30.5 23.75 34.25h-368.5zM441.25 295.5q-6.75-7.5-16.5-7.5t-16.75 7.5l-72.5 48.5q-5.5 2-9 6-7 7.5-7 18.25t7 18.25q3.5 3.5 9 5.5l72.5 49q7 7.5 16.75 7.5t16.5-7.5 6.75-18.25-7-18.25l-54-36.5 54-36q7-7.5 7-18.25t-6.75-18.25zM176.5 344l-72.5-48.5q-7-7.5-16.75-7.5t-16.5 7.5-6.75 18.25 7 18.25l54 36-54 36.5q-7 7.5-7 18.25t6.75 18.25 16.5 7.5 16.75-7.5l72.5-49q5.5-2 9-5.5 7-7.5 7-18.25t-7-18.25q-3.5-4-9-6z" />
<glyph unicode="&#xe6a5;" d="M479.75 0q-13.25 0-22.5 9.5t-9.25 22.5q0 24.5-25.5 46.5t-70.25 35.75-96.25 13.75q-51 0-96-14.25t-70.5-36.25-25.5-45.5q0-13-9.5-22.5t-22.75-9.5-22.5 9.5-9.25 22.5q0 47 34.5 83.75t92.75 56.5 128.75 19.75 128.75-19.75 92.75-56.5 34.5-83.75q0-13-9.5-22.5t-22.75-9.5zM441.25 295.5q-6.75-7.5-16.5-7.5t-16.75 7.5l-72.5 48.5q-5.5 2-9 6-7 7.5-7 18.25t7 18.25q3.5 3.5 9 5.5l72.5 49q7 7.5 16.75 7.5t16.5-7.5 6.75-18.25-7-18.25l-54-36.5 54-36q7-7.5 7-18.25t-6.75-18.25zM176.5 344l-72.5-48.5q-7-7.5-16.75-7.5t-16.5 7.5-6.75 18.25 7 18.25l54 36-54 36.5q-7 7.5-7 18.25t6.75 18.25 16.5 7.5 16.75-7.5l72.5-49q5.5-2 9-5.5 7-7.5 7-18.25t-7-18.25q-3.5-4-9-6z" />
<glyph unicode="&#xe6a6;" d="M475.5 114.5q0-61-37.5-103.75t-90.5-42.75-90.5 42.75-37.5 103.75h-183q-15 0-25.75 10.5t-10.75 25.75 10.75 26 25.75 10.75h439q15 0 25.75-10.75t10.75-26-10.75-25.75-25.75-10.5zM292.5 114.5q0-30.5 16-52t38.75-21.5 39 21.5 16.25 52h-110zM402.25 297q-30.25 0-51.75 26.75t-21.5 64.75 21.5 64.75 51.75 26.75 51.75-26.75 21.5-64.75-21.5-64.75-51.75-26.75zM109.75 297q-30.25 0-51.75 26.75t-21.5 64.75 21.5 64.75 51.75 26.75 51.75-26.75 21.5-64.75-21.5-64.75-51.75-26.75z" />
<glyph unicode="&#xe6a7;" d="M475.5 114.5q0-61-37.5-103.75t-90.5-42.75-90.5 42.75-37.5 103.75h-183q-15 0-25.75 10.5t-10.75 25.75 10.75 26 25.75 10.75h439q15 0 25.75-10.75t10.75-26-10.75-25.75-25.75-10.5zM292.5 114.5q0-30.5 16-52t38.75-21.5 39 21.5 16.25 52h-110zM467.75 306q-7.75-8.5-19-8.5t-18.75 8.5l-83.5 55.5q-6 2-10 6.5-7.5 8.5-7.5 20.75t7.5 20.75q4 4.5 10 7l83.5 55.5q7.5 8.5 18.75 8.5t19-8.75 7.75-20.75-8-20.5l-62-41.5 62-41.5q8-9 8-21t-7.75-20.5zM165.5 361.5l-83.5-55.5q-7.5-8.5-18.75-8.5t-19 8.5-7.75 20.5 8 21l62 41.5-62 41.5q-8 8.5-8 20.5t7.75 20.75 19 8.75 18.75-8.5l83.5-55.5q6-2.5 10-7 7.5-8.5 7.5-20.75t-7.5-20.75q-4-4.5-10-6.5z" />
<glyph unicode="&#xe6a8;" d="M512 160q0-47-34.5-83.75t-92.75-56.5-128.75-19.75-128.75 19.75-92.75 56.5-34.5 83.75q0 13.5 9.5 22.75t22.75 9.25 22.5-9.25 9.25-22.75q0-23.5 25.5-45.5t70.5-36.25 96-14.25q51.5 0 96.25 13.75t70.25 35.75 25.5 46.5q0 13.5 9.5 22.75t22.75 9.25 22.5-9.25 9.25-22.75zM416 320h-96q-13 0-22.5 9.5t-9.5 22.5 9.5 22.5 22.5 9.5h96q13.5 0 22.75-9.5t9.25-22.75-9.25-22.5-22.75-9.25zM128 288q-26.5 0-45.25 23.5t-18.75 56.5 18.75 56.5 45.25 23.5 45.25-23.5 18.75-56.5-18.75-56.5-45.25-23.5z" />
<glyph unicode="&#xe6a9;" d="M475.5 114.5q0-61-37.5-103.75t-90.5-42.75-90.5 42.75-37.5 103.75h-183q-15 0-25.75 10.5t-10.75 25.75 10.75 26 25.75 10.75h439q15 0 25.75-10.75t10.75-26-10.75-25.75-25.75-10.5zM292.5 114.5q0-30.5 16-52t38.75-21.5 39 21.5 16.25 52h-110zM439 333.5h-110q-15 0-25.75 10.75t-10.75 26 10.75 26 25.75 10.75h110q15 0 25.75-10.75t10.75-26-10.75-26-25.75-10.75zM109.75 297q-30.25 0-51.75 26.75t-21.5 64.75 21.5 64.75 51.75 26.75 51.75-26.75 21.5-64.75-21.5-64.75-51.75-26.75z" />
<glyph unicode="&#xe6aa;" d="M368 224q-33 0-56.5 28.25t-23.5 68 23.5 67.75 56.5 28 56.5-28 23.5-67.75-23.5-68-56.5-28.25zM128 224q-26.5 0-45.25 23.5t-18.75 56.5 18.75 56.5 45.25 23.5 45.25-23.5 18.75-56.5-18.75-56.5-45.25-23.5zM96 96h320q13.5 0 22.75-9.25t9.25-22.5-9.25-22.75-22.75-9.5h-320q-13.5 0-22.75 9.5t-9.25 22.75 9.25 22.5 22.75 9.25z" />
<glyph unicode="&#xe6ab;" d="M480 192l27-67.5q4.5-5 4.5-11.75t-4.75-11.75-11.75-5-12 5l-35 91h-32v-80q0-7-4.75-11.5t-11.25-4.5-11.25 4.5-4.75 11.5v223.5q0 7 4.75 11.75t11.25 4.75v0h48q26.5 0 45.25-18.75t18.75-45.25v-32.5q0-19-9.25-36.5t-22.75-27zM480 288q0 13-9.5 22.5t-22.5 9.5h-32v-96h32q13 0 22.5 9.25t9.5 22.75v32zM282.5-26l-120.5 121.5h-2v256.5h2l120.5 121.5q15 15 37.5-8v-484q-22.5-23-37.5-7.5zM0 127.5v192.5q0 13 9.25 22.5t22.75 9.5h96v-256.5h-96q-13.5 0-22.75 9.5t-9.25 22.5z" />
<glyph unicode="&#xe6ac;" d="M496 96h-96q-6.5 0-11.25 4.5t-4.75 11.5v224q0 6.5 4.75 11.25t11.25 4.75 11.25-4.75 4.75-11.25v-208h80q6.5 0 11.25-4.75t4.75-11.5-4.75-11.25-11.25-4.5zM282.5-26l-120.5 121.5h-2v256.5h2l120.5 121.5q15 15 37.5-8v-484q-22.5-23-37.5-7.5zM0 127.5v192.5q0 13 9.25 22.5t22.75 9.5h96v-256.5h-96q-13.5 0-22.75 9.5t-9.25 22.5z" />
<glyph unicode="&#xe6ad;" d="M448-32h-384q-26.5 0-45.25 18.75t-18.75 45.25v80q0 16.5 14.25 105t34 175.75 31.75 87.25h144v-128h-82.5q-9 0-12.25-10t2.25-15.5l112-97q5.5-5.5 12.75-5.5t12.75 5.5l111.5 97q5.5 5.5 2.25 15.5t-12.25 10h-82v128h143.5q12 0 31.75-87.25t34-175.75 14.25-105v-80q0-26.5-18.75-45.25t-45.25-18.75zM480 96q0 13-9.25 22.5t-22.75 9.5h-384q-13.5 0-22.75-9.5t-9.25-22.5v-64q0-13.5 9.25-22.75t22.75-9.25h384q13.5 0 22.75 9.25t9.25 22.75v64zM95.75 32q-13.25 0-22.5 9.25t-9.25 22.5 9.25 22.75 22.5 9.5 22.75-9.5 9.5-22.75-9.5-22.5-22.75-9.25z" />
<glyph unicode="&#xe6ae;" d="M492.5 200.5l-189-94.5q-20-10-47.5-10t-47.5 10l-189 94.5q-19.5 10-19.5 23.75t19.5 23.75l49 24 35-17.5-71.5-30.5 224-96 224 96-71.5 30.5 35 17.5 49-24q19.5-10 19.5-23.75t-19.5-23.75zM492.5 328.5l-189-94.5q-20-10-47.5-10t-47.5 10l-189 94.5q-19.5 10-19.5 23.75t19.5 23.75l189 94.5q20 9.5 47.5 9.5t47.5-9.5l189-94.5q19.5-10 19.5-23.75t-19.5-23.75zM19.5 119.5l49 24.5 35-17.5-71.5-30.5 224-96 224 96-71.5 30.5 35 17.5 49-24.5q19.5-9.5 19.5-23.5t-19.5-23.5l-189-94.5q-20-10-47.5-10t-47.5 10l-189 94.5q-19.5 9.5-19.5 23.5t19.5 23.5z" />
<glyph unicode="&#xe6af;" d="M492.5 200.5l-189-94.5q-20-10-47.5-10t-47.5 10l-189 94.5q-19.5 10-19.5 23.75t19.5 23.25l49 24.5 35-17.5-71.5-30.5 224-96 224 96-71.5 30.5 35 17.5 49-24.5q19.5-9.5 19.5-23.5t-19.5-23.5zM492.5 328.5l-189-94.5q-20-10-47.5-10t-47.5 10l-189 94.5q-19.5 10-19.5 23.75t19.5 23.75l189 94.5q20 9.5 47.5 9.5t47.5-9.5l189-94.5q19.5-10 19.5-23.75t-19.5-23.75zM256 448l-224-96 224-96 224 96zM19.5 119.5l49 24.5 140-70q20-10 47.5-10t47.5 10l140 70 49-24.5q19.5-9.5 19.5-23.5t-19.5-23.5l-189-94.5q-20-10-47.5-10t-47.5 10l-189 94.5q-19.5 9.5-19.5 23.5t19.5 23.5z" />
<glyph unicode="&#xe6b0;" d="M492.5 200.5l-189-94.5q-20-10-47.5-10t-47.5 10l-189 94.5q-19.5 10-19.5 23.75t19.5 23.25l49 24.5 140-70q20-10 47.5-10t47.5 10l140 70 49-24.5q19.5-9.5 19.5-23.5t-19.5-23.5zM492.5 328.5l-189-94.5q-20-10-47.5-10t-47.5 10l-189 94.5q-19.5 10-19.5 23.75t19.5 23.75l189 94.5q20 9.5 47.5 9.5t47.5-9.5l189-94.5q19.5-10 19.5-23.75t-19.5-23.75zM256 448l-224-96 224-96 224 96zM19.5 119.5l49 24.5 35-17.5-71.5-30.5 224-96 224 96-71.5 30.5 35 17.5 49-24.5q19.5-9.5 19.5-23.5t-19.5-23.5l-189-94.5q-20-10-47.5-10t-47.5 10l-189 94.5q-19.5 9.5-19.5 23.5t19.5 23.5z" />
<glyph unicode="&#xe6b1;" d="M256-32q-52 0-99.5 20.25t-81.75 54.5-54.5 81.75-20.25 99.5 20.25 99.5 54.5 81.75 81.75 54.5 99.5 20.25 99.5-20.25 81.75-54.5 54.5-81.75 20.25-99.5-20.25-99.5-54.5-81.75-81.75-54.5-99.5-20.25zM410.5 182.5q-31 9.5-74.5 9.5-12.5 0-27.5-4.5 9.5-54.5 11.5-110 33 14.5 57 42t33.5 63zM287.5 67q-1.5 50-12 106l-19.5-13q-26.5-19-41.75-38.5t-20.25-45q29.5-12.5 62-12.5 16 0 31.5 3zM96 224q0-39.5 18-73.75t49-56.25q19 58 67 92 19 13.5 38 22-4.5 18.5-9.5 33-37.5-17.5-77.5-17-44 0.5-84 17-1-9-1-17zM104 274.5q39-18.5 72-18.5 31 0 69 17-27 55.5-78.5 83-45.5-30.5-62.5-81.5zM256 384q-28.5 0-57-11 51.5-27 77-81.5 46 33 56.5 73-35.5 19.5-76.5 19.5zM358.5 347q-19.5-53.5-65-85.5l-4.5-3q6-17 12-39 21 4.5 42 4.5 36-0.5 72-12.5 1 12 1 12.5 0 36.5-15.25 68.5t-42.25 54.5z" />
<glyph unicode="&#xe6b2;" d="M448-32h-384q-26.5 0-45.25 18.75t-18.75 45.25v384q0 26.5 18.75 45.25t45.25 18.75h384q26.5 0 45.25-18.75t18.75-45.25v-384q0-26.5-18.75-45.25t-45.25-18.75zM410.5 182.5q-31 9.5-74.5 9.5-12.5 0-28-4.5 10-54.5 12-110 33 14.5 56.75 42t33.75 63zM287.5 67q-1.5 50.5-12 106-9.5-6-19.5-13-26.5-19-41.75-38.5t-20.25-45q29.5-12.5 62-12.5 16 0 31.5 3zM96 224q0-39.5 18-73.75t49-56.25q19 58 67 92 19 13.5 38 22-4.5 19-9.5 33-37.5-17.5-77.5-17-44 0.5-84 17-1-9-1-17zM104 274q39-18 72-18 31 0 69 17-27 55.5-78.5 83-45.5-30.5-62.5-82zM256 384q-28.5 0-57-11 51.5-27 77.5-81.5 45.5 33 56 73-35.5 19.5-76.5 19.5zM358.5 347q-19.5-53.5-65-85.5-0.5-0.5-4.5-3 6-17 12-39 21 4.5 42 4.5 36-0.5 72-12.5 1 11.5 1 12.5 0 36.5-15.25 68.5t-42.25 54.5z" />
<glyph unicode="&#xe6b3;" d="M448-32h-192q-15 0-55.25 29.75t-56.75 50.25q-17.5 22.5-44 40.5t-47.75 26.5-36.75 16.25-15.5 12.75q0 22.5 14.5 35.25t33.5 12.75q10 0 26.25-4.75t29.75-10.25 40-17q3.5-1.5 21-16.75t27-15.25q10.5 0 33.75 11t42.75 26.75 19.5 26.25v32q0 43.5-5 79t-11 53.25-11 34-5 25.75q0 1.5-0.25 9t0 11.75 0.5 11.75 1.25 12.25 2.75 9.5 4.75 7.25 7 2.5q26.5 0 39-21t35.5-90q3.5-11 5.5-17 7-21 15-37t12.5-21.5l4.5-5.5q7-3.5 18.5-9.75t37.5-23.25 40-31q9.5-9.5 20.75-38t11.25-42v-64q0-23-3.75-41.5t-9-29.75-12.5-19.75-13.5-12.25-12.75-6-8.75-2.5-3.75-0.25zM208 352q-3.5 0-10.5 7t-12.5 14.5l-5.5 7-112-112q28.5-21 28.5-28.5 0-6.5-4.75-11.25t-11.25-4.75h-64q-6.5 0-11.25 4.75t-4.75 11.25v64q0 6.5 4.75 11.25t11.25 4.75q8 0 28-28l112 112q-28 20-28 28 0 6.5 4.75 11.25t11.25 4.75h64q6.5 0 11.25-4.75t4.75-11.25v-64q0-6.5-4.75-11.25t-11.25-4.75z" />
<glyph unicode="&#xe6b4;" d="M448-32h-192q-15 0-55.25 29.75t-56.75 50.25q-17.5 22.5-44 40.5t-47.5 26.5-36.5 16.25-15.5 12.75q0 22.5 14.25 35.25t33.75 12.75q10 0 26.25-5t29.5-10.25 39.75-16.75q4-1.5 21.25-16.75t26.75-15.25q11 0 34 11t42.5 26.75 19.5 26.25v32q0 43.5-5 79t-11 53.25-11 33.75-5 25.5v21t0.25 11.75 1.5 12 2.75 9.75 4.5 7.25 7 2.25q26.5 0 39-20.75t35.5-90.25q3.5-11 5.5-16.5 7-21 15-37t12.5-21.5l4.5-5.5q7.5-4 19-10t37.25-23 39.75-31q9.5-9.5 20.75-38t11.25-42v-64q0-23-3.5-41.5t-9.25-29.75-12.5-19.75-13.5-12.25-12.5-6-9.25-2.75h-3.5zM224 368q0-7-4.5-11.5t-11.5-4.5h-64q-6.5 0-11.25 4.5t-4.75 11.5v63.5q0 7 4.75 11.5t11.25 4.5q3.5 0 10.5-7t12.5-13.5l5-7 23.5 23q5 5 11.75 5t11.75-5 5-11.75-5-11.75l-23.5-23.5q0 0.5 7.25-5.25t14.25-12.75 7-10zM80.5 224q-3.5 0-10.75 7t-12.25 14l-5.5 7.5-23.5-23.5q-5-5-11.75-5t-11.75 5-5 11.75 5 11.75l23 23.5q-3 2-7.5 5.5t-12.25 11.25-7.75 11.25q0 6.5 4.5 11.25t11.5 4.75h63.5q7 0 11.5-4.75t4.5-11.25v-64q0-7-4.5-11.5t-11-4.5z" />
<glyph unicode="&#xe6b5;" d="M448 384q0 26.5-14 45.25t-34 18.75h-64q-20 0-34-18.75t-14-45.25v-336q0-20 18.75-34t45.25-14v-32h-192v32q26.5 0 45.25 14t18.75 34v336q0 26.5-14 45.25t-34 18.75h-64q-20 0-34-18.75t-14-45.25h-32v96h448v-96h-32z" />
<glyph unicode="&#xe6b6;" d="M288 384v-416h-96v416h-160v96h416v-96h-160z" />
<glyph unicode="&#xe6b7;" d="M400 384h-112v-368q0-20-14-34t-34-14-34 14-14 34v368h-112q-20 0-34 14t-14 34 14 34 34 14h320q20 0 34-14t14-34-14-34-34-14z" />
</font>
</defs>
</svg>
